<svg width="36" height="36" viewBox="0 0 36 36" fill="none" xmlns="http://www.w3.org/2000/svg">
<path fill-rule="evenodd" clip-rule="evenodd" d="M18.0026 0.0859375C8.1076 0.0859375 0.0859375 8.1076 0.0859375 18.0026C0.0859375 27.8976 8.1076 35.9193 18.0026 35.9193C27.8976 35.9193 35.9193 27.8976 35.9193 18.0026C35.9193 8.1076 27.8976 0.0859375 18.0026 0.0859375ZM23.8359 21.7526C23.2834 21.7526 22.7535 21.9721 22.3628 22.3628C21.9721 22.7535 21.7526 23.2834 21.7526 23.8359C21.7526 24.3885 21.9721 24.9184 22.3628 25.3091C22.7535 25.6998 23.2834 25.9193 23.8359 25.9193C24.3885 25.9193 24.9184 25.6998 25.3091 25.3091C25.6998 24.9184 25.9193 24.3885 25.9193 23.8359C25.9193 23.2834 25.6998 22.7535 25.3091 22.3628C24.9184 21.9721 24.3885 21.7526 23.8359 21.7526ZM10.0859 12.1693C10.0859 11.6167 10.3054 11.0868 10.6961 10.6961C11.0868 10.3054 11.6167 10.0859 12.1693 10.0859C12.7218 10.0859 13.2517 10.3054 13.6424 10.6961C14.0331 11.0868 14.2526 11.6167 14.2526 12.1693C14.2526 12.7218 14.0331 13.2517 13.6424 13.6424C13.2517 14.0331 12.7218 14.2526 12.1693 14.2526C11.6167 14.2526 11.0868 14.0331 10.6961 13.6424C10.3054 13.2517 10.0859 12.7218 10.0859 12.1693ZM23.7859 10.4526C23.9004 10.3298 24.0384 10.2313 24.1917 10.163C24.345 10.0946 24.5106 10.0579 24.6784 10.055C24.8462 10.052 25.013 10.0829 25.1686 10.1457C25.3242 10.2086 25.4656 10.3022 25.5843 10.4209C25.703 10.5396 25.7966 10.681 25.8595 10.8366C25.9223 10.9923 25.9532 11.159 25.9503 11.3268C25.9473 11.4946 25.9106 11.6602 25.8422 11.8135C25.7739 11.9668 25.6754 12.1048 25.5526 12.2193L12.2193 25.5526C11.9823 25.7734 11.6689 25.8936 11.3451 25.8879C11.0212 25.8822 10.7123 25.751 10.4832 25.522C10.2542 25.293 10.123 24.984 10.1173 24.6601C10.1116 24.3363 10.2318 24.0229 10.4526 23.7859L23.7859 10.4526Z" fill="#FF6100"/>
</svg>
