<svg width="0" height="0" class="hidden">
  <symbol  xmlns="http://www.w3.org/2000/svg" viewBox="0 0 20 19" id="all">
    <path d="M10 15.27L16.18 19L14.54 11.97L20 7.24L12.81 6.63L10 0L7.19 6.63L0 7.24L5.46 11.97L3.82 19L10 15.27Z" ></path>
  </symbol>
  <symbol  xmlns="http://www.w3.org/2000/svg" viewBox="0 0 22 23" id="pharmacy">
    <path d="M12.902 20.165v-6.513h6.513a1.902 1.902 0 1 0 0-3.805h-6.513V3.334a1.903 1.903 0 1 0-3.805 0v6.513H2.584a1.903 1.903 0 0 0-1.345 3.248l.353-.353-.353.353c.357.357.84.557 1.345.557h6.513v6.513a1.903 1.903 0 1 0 3.805 0z"></path>
    <path d="M11 .932a2.404 2.404 0 0 0-2.402 2.402v6.014H2.584A2.403 2.403 0 0 0 .182 11.75c0 .45.263.823.496 1.2l-.147.146.354.353.353.354.147-.147c.376.233.75.496 1.199.496h6.014v6.014A2.405 2.405 0 0 0 11 22.568a2.405 2.405 0 0 0 2.402-2.402v-6.014h6.014a2.405 2.405 0 0 0 2.402-2.402 2.405 2.405 0 0 0-2.402-2.402h-6.014V3.334A2.403 2.403 0 0 0 11 .932Zm0 1a1.402 1.402 0 0 1 1.402 1.402v7.014h7.014a1.404 1.404 0 0 1 .99 2.395c-.263.262-.618.41-.99.41h-7.014v7.013a1.404 1.404 0 0 1-2.395.99 1.398 1.398 0 0 1-.41-.99v-7.014H2.585a1.402 1.402 0 1 1 0-2.804h7.014V3.334A1.402 1.402 0 0 1 11 1.932Z"></path>
  </symbol>
  <symbol  xmlns="http://www.w3.org/2000/svg" viewBox="0 0 20 19" id="food-store">
    <path fill-rule="evenodd" clip-rule="evenodd" d="M8.46027 0.781929C8.63923 0.567232 8.86121 0.392429 9.11188 0.268795C9.36256 0.145162 9.63636 0.0754439 9.91564 0.0641372C10.1949 0.0528305 10.4735 0.100186 10.7333 0.203151C10.9932 0.306115 11.2285 0.462401 11.4243 0.661929L11.5323 0.781929L15.4643 5.49993H18.4493C18.6591 5.49948 18.8667 5.54337 19.0584 5.62872C19.2501 5.71408 19.4217 5.83896 19.5618 5.99521C19.7019 6.15145 19.8074 6.33553 19.8714 6.53538C19.9354 6.73524 19.9565 6.94636 19.9333 7.15493L19.8413 7.92093L19.7413 8.66093L19.6593 9.21493L19.5643 9.80993L19.4563 10.4349L19.3343 11.0829L19.1983 11.7439C19.1263 12.0769 19.0493 12.4109 18.9663 12.7429C18.7449 13.621 18.467 14.4838 18.1343 15.3259L17.9133 15.8659L17.6993 16.3539L17.4973 16.7879L17.4033 16.9819L17.1543 17.4719C16.8343 18.0819 16.2303 18.4419 15.5913 18.4939L15.4313 18.4999H4.55127C4.20165 18.5027 3.85786 18.4103 3.55666 18.2328C3.25547 18.0552 3.00819 17.7991 2.84127 17.4919L2.60927 17.0419L2.42927 16.6719C2.39722 16.6038 2.36555 16.5354 2.33427 16.4669L2.13427 16.0179C1.67771 14.9574 1.30719 13.8619 1.02627 12.7419C0.972006 12.5245 0.920004 12.3065 0.870269 12.0879L0.728269 11.4399L0.601269 10.8059L0.489269 10.1929L0.389269 9.60593L0.302269 9.05193L0.228269 8.53893L0.138269 7.85593L0.0722693 7.29993C0.066504 7.24894 0.0608373 7.19794 0.0552693 7.14693C0.0343074 6.95042 0.0527 6.7517 0.109373 6.56238C0.166047 6.37306 0.259866 6.19692 0.385353 6.04425C0.510841 5.89158 0.665483 5.76543 0.840253 5.67318C1.01502 5.58092 1.20642 5.52441 1.40327 5.50693L1.53927 5.49993H4.52827L8.46027 0.781929ZM7.95727 10.2219C7.88962 9.98599 7.73756 9.78316 7.53004 9.65208C7.32253 9.521 7.07405 9.47082 6.83193 9.51109C6.5898 9.55136 6.37095 9.67927 6.21703 9.87047C6.06312 10.0617 5.9849 10.3028 5.99727 10.5479L6.01027 10.6639L6.51027 13.6639L6.53527 13.7779C6.60292 14.0139 6.75498 14.2167 6.96249 14.3478C7.17001 14.4789 7.41849 14.529 7.66061 14.4888C7.90274 14.4485 8.12159 14.3206 8.27551 14.1294C8.42942 13.9382 8.50764 13.6971 8.49527 13.4519L8.48227 13.3359L7.98227 10.3359L7.95727 10.2219ZM13.1603 9.51393C12.9186 9.47361 12.6705 9.52344 12.4631 9.65396C12.2557 9.78447 12.1035 9.98658 12.0353 10.2219L12.0103 10.3359L11.5103 13.3359C11.4685 13.5875 11.5245 13.8456 11.6667 14.0573C11.809 14.269 12.0267 14.4183 12.2754 14.4748C12.5241 14.5312 12.785 14.4905 13.0047 14.361C13.2244 14.2315 13.3863 14.0229 13.4573 13.7779L13.4823 13.6639L13.9823 10.6639C14.0256 10.4024 13.9634 10.1344 13.8093 9.9188C13.6552 9.70316 13.4217 9.55754 13.1603 9.51393ZM9.99627 2.06193L7.13127 5.49993H12.8613L9.99627 2.06193Z" ></path>
  </symbol>
  <symbol  xmlns="http://www.w3.org/2000/svg" viewBox="0 0 22 19" id="school">
    <path d="M4 10.43V14.43L11 18.25L18 14.43V10.43L11 14.25L4 10.43ZM11 0.25L0 6.25L11 12.25L20 7.34V14.25H22V6.25L11 0.25Z" ></path>
  </symbol>
  <symbol  xmlns="http://www.w3.org/2000/svg" viewBox="0 0 18 18" id="kindergarden">
    <path d="M12.75 16.13C11.92 16.13 11.25 15.29 11.25 14.25C11.25 13.22 11.92 12.38 12.75 12.38C13.58 12.38 14.25 13.22 14.25 14.25C14.25 15.29 13.58 16.13 12.75 16.13ZM9.00001 8.25C7.76001 8.25 6.75001 7.41 6.75001 6.38C6.75001 5.34 7.76001 4.5 9.00001 4.5C10.24 4.5 11.25 5.34 11.25 6.38C11.25 7.41 10.24 8.25 9.00001 8.25ZM5.25001 16.13C4.42001 16.13 3.75001 15.29 3.75001 14.25C3.75001 13.22 4.42001 12.38 5.25001 12.38C6.08001 12.38 6.75001 13.22 6.75001 14.25C6.75001 15.29 6.08001 16.13 5.25001 16.13ZM9.00001 5.25C9.41001 5.25 9.75001 5.59 9.75001 6C9.75001 6.41 9.41001 6.75 9.00001 6.75C8.59001 6.75 8.25001 6.41 8.25001 6C8.25001 5.59 8.59001 5.25 9.00001 5.25ZM15.75 9C15.43 9 15.12 9.07 14.84 9.2C14.36 8.59 13.71 8.07 12.93 7.67C13.5 6.87 13.84 5.9 13.84 4.85V4.79C14.93 4.56 15.75 3.59 15.75 2.42C15.75 1.09 14.66 0 13.33 0C12.64 0 12 0.29 11.58 0.75C10.8086 0.260185 9.91376 7.39098e-05 9.00001 7.39098e-05C8.08626 7.39098e-05 7.19139 0.260185 6.42001 0.75C6.00001 0.29 5.36001 0 4.67001 0C3.34001 0 2.25001 1.09 2.25001 2.42C2.25001 3.58 3.07001 4.55 4.15001 4.79V4.85C4.15001 5.9 4.50001 6.88 5.06001 7.67C4.29001 8.07 3.64001 8.59 3.16001 9.2C2.81828 9.04606 2.44338 8.98033 2.06965 9.00883C1.69593 9.03734 1.33534 9.15916 1.0209 9.36315C0.706462 9.56713 0.448237 9.84676 0.269879 10.1764C0.0915209 10.5061 -0.00126768 10.8752 1.30808e-05 11.25C1.30808e-05 12.5 1.00001 13.5 2.25001 13.5H2.31001C2.27001 13.74 2.25001 14 2.25001 14.25C2.25001 16.32 3.59001 18 5.25001 18C6.26001 18 7.15001 17.37 7.70001 16.41C8.12001 16.47 8.55001 16.5 9.00001 16.5C9.45001 16.5 9.88001 16.47 10.3 16.41C10.85 17.37 11.74 18 12.75 18C14.41 18 15.75 16.32 15.75 14.25C15.75 14 15.73 13.74 15.69 13.5H15.75C17 13.5 18 12.5 18 11.25C18 10 17 9 15.75 9Z" ></path>
  </symbol>
  <symbol  xmlns="http://www.w3.org/2000/svg" viewBox="0 0 16 20" id="park">
    <path d="M9.11089 19.75H6.88911V15.3493H0L4.49754 8.74826H2.2915L8 0.75L13.7085 8.74826H11.5025L16 15.3493H9.11089V19.75Z" ></path>
  </symbol>
  <symbol  xmlns="http://www.w3.org/2000/svg" viewBox="0 0 16 20" id="metro">
    <path d="M8 0.5C3.58 0.5 0 1 0 4.5V14C0 15.93 1.57 17.5 3.5 17.5L2 19V19.5H14V19L12.5 17.5C14.43 17.5 16 15.93 16 14V4.5C16 1 12.42 0.5 8 0.5ZM3.5 15.5C2.67 15.5 2 14.83 2 14C2 13.17 2.67 12.5 3.5 12.5C4.33 12.5 5 13.17 5 14C5 14.83 4.33 15.5 3.5 15.5ZM7 9.5H2V4.5H7V9.5ZM12.5 15.5C11.67 15.5 11 14.83 11 14C11 13.17 11.67 12.5 12.5 12.5C13.33 12.5 14 13.17 14 14C14 14.83 13.33 15.5 12.5 15.5ZM14 9.5H9V4.5H14V9.5Z" ></path>
  </symbol>
  <symbol  xmlns="http://www.w3.org/2000/svg" viewBox="0 0 16 20" id="bus-stop">
    <path d="M14.002 9.24805H2.00195V4.24805H14.002M12.502 15.248C12.1041 15.248 11.7226 15.09 11.4413 14.8087C11.16 14.5274 11.002 14.1459 11.002 13.748C11.002 13.3502 11.16 12.9687 11.4413 12.6874C11.7226 12.4061 12.1041 12.248 12.502 12.248C12.8998 12.248 13.2813 12.4061 13.5626 12.6874C13.8439 12.9687 14.002 13.3502 14.002 13.748C14.002 14.1459 13.8439 14.5274 13.5626 14.8087C13.2813 15.09 12.8998 15.248 12.502 15.248ZM3.50195 15.248C3.10413 15.248 2.7226 15.09 2.44129 14.8087C2.15999 14.5274 2.00195 14.1459 2.00195 13.748C2.00195 13.3502 2.15999 12.9687 2.44129 12.6874C2.7226 12.4061 3.10413 12.248 3.50195 12.248C3.89978 12.248 4.28131 12.4061 4.56261 12.6874C4.84392 12.9687 5.00195 13.3502 5.00195 13.748C5.00195 14.1459 4.84392 14.5274 4.56261 14.8087C4.28131 15.09 3.89978 15.248 3.50195 15.248ZM0.00195312 14.248C0.00195312 15.128 0.391953 15.918 1.00195 16.468V18.248C1.00195 18.5133 1.10731 18.7676 1.29485 18.9552C1.48238 19.1427 1.73674 19.248 2.00195 19.248H3.00195C3.26717 19.248 3.52152 19.1427 3.70906 18.9552C3.8966 18.7676 4.00195 18.5133 4.00195 18.248V17.248H12.002V18.248C12.002 18.5133 12.1073 18.7676 12.2948 18.9552C12.4824 19.1427 12.7367 19.248 13.002 19.248H14.002C14.2672 19.248 14.5215 19.1427 14.7091 18.9552C14.8966 18.7676 15.002 18.5133 15.002 18.248V16.468C15.612 15.918 16.002 15.128 16.002 14.248V4.24805C16.002 0.748047 12.422 0.248047 8.00195 0.248047C3.58195 0.248047 0.00195312 0.748047 0.00195312 4.24805V14.248Z" ></path>
  </symbol>
  <symbol  xmlns="http://www.w3.org/2000/svg" viewBox="0 0 20 18" id="sales-office">
    <path d="M19 4H13C12.7348 4 12.4804 4.10536 12.2929 4.29289C12.1054 4.48043 12 4.73478 12 5V8H10V1C10 0.734784 9.89464 0.48043 9.70711 0.292893C9.51957 0.105357 9.26522 0 9 0H1C0.734784 0 0.48043 0.105357 0.292893 0.292893C0.105357 0.48043 0 0.734784 0 1V17C0 17.2652 0.105357 17.5196 0.292893 17.7071C0.48043 17.8946 0.734784 18 1 18H19C19.2652 18 19.5196 17.8946 19.7071 17.7071C19.8946 17.5196 20 17.2652 20 17V5C20 4.73478 19.8946 4.48043 19.7071 4.29289C19.5196 4.10536 19.2652 4 19 4ZM6 3H8V5H6V3ZM4 13H2V11H4V13ZM4 9H2V7H4V9ZM4 5H2V3H4V5ZM8 13H6V11H8V13ZM8 9H6V7H8V9ZM17 13H15V11H17V13ZM17 9H15V7H17V9Z" ></path>
  </symbol>
</svg>