<svg width="120" height="120" viewBox="0 0 120 120" fill="none" xmlns="http://www.w3.org/2000/svg">
<g clip-path="url(#clip0_2279_59340)">
<rect width="120" height="120" rx="2.84024" fill="white"/>
<path d="M18.0476 57.1868V62.4021H18.9036V65.2396H17.9683V63.2739H13.2603V57.1868H14.1956V62.4021H17.1123V57.1868H18.0476ZM22.8309 63.4007C22.2443 63.4007 21.7384 63.2713 21.313 63.0124C20.8903 62.7508 20.564 62.3862 20.3342 61.9186C20.107 61.4483 19.9934 60.9014 19.9934 60.2779C19.9934 59.6544 20.107 59.1049 20.3342 58.6293C20.564 58.1511 20.8837 57.7786 21.2932 57.5118C21.7054 57.2423 22.1862 57.1076 22.7357 57.1076C23.0528 57.1076 23.3659 57.1604 23.675 57.2661C23.9841 57.3717 24.2655 57.5435 24.5191 57.7813C24.7727 58.0164 24.9748 58.3281 25.1254 58.7165C25.276 59.1049 25.3513 59.5831 25.3513 60.1511V60.5474H20.6592V59.739H24.4002C24.4002 59.3955 24.3315 59.089 24.1941 58.8196C24.0594 58.5501 23.8665 58.3374 23.6155 58.1815C23.3672 58.0256 23.0739 57.9477 22.7357 57.9477C22.3632 57.9477 22.0409 58.0402 21.7688 58.2251C21.4993 58.4074 21.2919 58.6452 21.1466 58.9384C21.0013 59.2317 20.9286 59.5461 20.9286 59.8816V60.4206C20.9286 60.8803 21.0079 61.27 21.1664 61.5897C21.3276 61.9067 21.5508 62.1484 21.8362 62.3149C22.1215 62.4787 22.4531 62.5606 22.8309 62.5606C23.0766 62.5606 23.2985 62.5262 23.4966 62.4576C23.6974 62.3862 23.8705 62.2805 24.0158 62.1405C24.1611 61.9979 24.2734 61.8208 24.3526 61.6095L25.2562 61.8631C25.1611 62.1696 25.0012 62.4391 24.7767 62.6716C24.5521 62.9014 24.2747 63.0811 23.9445 63.2105C23.6142 63.3373 23.243 63.4007 22.8309 63.4007ZM30.8479 59.8024V60.6742H27.4873V59.8024H30.8479ZM27.7093 57.1868V63.2739H26.774V57.1868H27.7093ZM31.5613 57.1868V63.2739H30.626V57.1868H31.5613ZM32.4411 58.0587V57.1868H37.3868V58.0587H35.3895V63.2739H34.4542V58.0587H32.4411ZM38.7511 65.5566V57.1868H39.6546V58.1538H39.7656C39.8343 58.0481 39.9294 57.9134 40.0509 57.7496C40.1751 57.5831 40.3521 57.4352 40.582 57.3057C40.8145 57.1736 41.1289 57.1076 41.5252 57.1076C42.0377 57.1076 42.4895 57.2357 42.8805 57.492C43.2715 57.7482 43.5767 58.1115 43.7959 58.5818C44.0152 59.052 44.1249 59.6069 44.1249 60.2462C44.1249 60.8909 44.0152 61.4496 43.7959 61.9226C43.5767 62.3928 43.2728 62.7574 42.8845 63.0163C42.4961 63.2726 42.0483 63.4007 41.541 63.4007C41.15 63.4007 40.8369 63.336 40.6018 63.2066C40.3667 63.0745 40.1857 62.9252 40.0589 62.7587C39.932 62.5897 39.8343 62.4496 39.7656 62.3387H39.6863V65.5566H38.7511ZM39.6705 60.2304C39.6705 60.6901 39.7379 61.0956 39.8726 61.447C40.0073 61.7957 40.2042 62.0692 40.4631 62.2673C40.722 62.4628 41.039 62.5606 41.4142 62.5606C41.8052 62.5606 42.1315 62.4576 42.393 62.2515C42.6572 62.0428 42.8554 61.7627 42.9875 61.4113C43.1222 61.0573 43.1896 60.6637 43.1896 60.2304C43.1896 59.8024 43.1236 59.4166 42.9915 59.0732C42.862 58.7271 42.6652 58.4536 42.401 58.2528C42.1394 58.0494 41.8105 57.9477 41.4142 57.9477C41.0338 57.9477 40.7141 58.0441 40.4552 58.237C40.1962 58.4272 40.0007 58.6941 39.8686 59.0375C39.7365 59.3783 39.6705 59.7759 39.6705 60.2304Z" fill="black"/>
<path d="M80.5552 63.2739V57.1868H85.3425V63.2739H84.4072V58.0587H81.4905V63.2739H80.5552ZM88.8418 63.4166C88.4561 63.4166 88.106 63.3439 87.7916 63.1986C87.4772 63.0507 87.2275 62.838 87.0426 62.5606C86.8577 62.2805 86.7652 61.9424 86.7652 61.5461C86.7652 61.1973 86.8339 60.9146 86.9713 60.698C87.1086 60.4787 87.2923 60.307 87.5221 60.1828C87.752 60.0586 88.0056 59.9662 88.283 59.9054C88.5631 59.842 88.8444 59.7918 89.1271 59.7548C89.497 59.7073 89.7969 59.6716 90.0267 59.6478C90.2592 59.6214 90.4283 59.5778 90.534 59.517C90.6423 59.4563 90.6964 59.3506 90.6964 59.2V59.1683C90.6964 58.7773 90.5894 58.4735 90.3754 58.2568C90.1641 58.0402 89.8431 57.9318 89.4124 57.9318C88.966 57.9318 88.6159 58.0296 88.3623 58.2251C88.1086 58.4206 87.9303 58.6293 87.8273 58.8513L86.9396 58.5342C87.0981 58.1643 87.3094 57.8764 87.5736 57.6703C87.8405 57.4616 88.1311 57.3163 88.4455 57.2344C88.7625 57.1498 89.0743 57.1076 89.3807 57.1076C89.5762 57.1076 89.8008 57.1313 90.0544 57.1789C90.3107 57.2238 90.5577 57.3176 90.7955 57.4603C91.0359 57.6029 91.2354 57.8182 91.3939 58.1062C91.5524 58.3942 91.6317 58.7799 91.6317 59.2634V63.2739H90.6964V62.4496H90.6489C90.5855 62.5817 90.4798 62.7231 90.3319 62.8737C90.1839 63.0243 89.9871 63.1524 89.7414 63.2581C89.4957 63.3638 89.1958 63.4166 88.8418 63.4166ZM88.9844 62.5764C89.3543 62.5764 89.6661 62.5038 89.9197 62.3585C90.176 62.2132 90.3688 62.0256 90.4983 61.7957C90.6304 61.5659 90.6964 61.3241 90.6964 61.0705V60.2145C90.6568 60.2621 90.5696 60.3057 90.4349 60.3453C90.3028 60.3823 90.1496 60.4153 89.9752 60.4444C89.8035 60.4708 89.6357 60.4946 89.4719 60.5157C89.3107 60.5342 89.18 60.55 89.0796 60.5633C88.8365 60.595 88.6093 60.6465 88.3979 60.7178C88.1892 60.7865 88.0201 60.8909 87.8907 61.0309C87.7639 61.1683 87.7004 61.3559 87.7004 61.5936C87.7004 61.9186 87.8207 62.1643 88.0611 62.3307C88.3041 62.4945 88.6119 62.5764 88.9844 62.5764ZM93.3388 65.5566V57.1868H94.2423V58.1538H94.3533C94.422 58.0481 94.5171 57.9134 94.6386 57.7496C94.7628 57.5831 94.9398 57.4352 95.1696 57.3057C95.4021 57.1736 95.7165 57.1076 96.1128 57.1076C96.6254 57.1076 97.0772 57.2357 97.4682 57.492C97.8592 57.7482 98.1643 58.1115 98.3836 58.5818C98.6029 59.052 98.7125 59.6069 98.7125 60.2462C98.7125 60.8909 98.6029 61.4496 98.3836 61.9226C98.1643 62.3928 97.8605 62.7574 97.4721 63.0163C97.0838 63.2726 96.6359 63.4007 96.1287 63.4007C95.7377 63.4007 95.4246 63.336 95.1895 63.2066C94.9543 63.0745 94.7733 62.9252 94.6465 62.7587C94.5197 62.5897 94.422 62.4496 94.3533 62.3387H94.274V65.5566H93.3388ZM94.2582 60.2304C94.2582 60.6901 94.3255 61.0956 94.4603 61.447C94.595 61.7957 94.7918 62.0692 95.0508 62.2673C95.3097 62.4628 95.6267 62.5606 96.0019 62.5606C96.3929 62.5606 96.7192 62.4576 96.9807 62.2515C97.2449 62.0428 97.4431 61.7627 97.5752 61.4113C97.7099 61.0573 97.7773 60.6637 97.7773 60.2304C97.7773 59.8024 97.7112 59.4166 97.5791 59.0732C97.4497 58.7271 97.2528 58.4536 96.9886 58.2528C96.7271 58.0494 96.3982 57.9477 96.0019 57.9477C95.6214 57.9477 95.3017 58.0441 95.0428 58.237C94.7839 58.4272 94.5884 58.6941 94.4563 59.0375C94.3242 59.3783 94.2582 59.7759 94.2582 60.2304ZM100.139 63.2739V57.1868H101.074V59.8341H101.693L103.88 57.1868H105.085L102.628 60.1194L105.117 63.2739H103.912L101.915 60.7059H101.074V63.2739H100.139Z" fill="black"/>
<path d="M48.8008 60.3643H77.6425" stroke="#0B9B72" stroke-width="1.29991" stroke-miterlimit="10"/>
</g>
<defs>
<clipPath id="clip0_2279_59340">
<rect width="120" height="120" rx="60" fill="white"/>
</clipPath>
</defs>
</svg>
