<svg width="1680" height="920" viewBox="0 0 1680 920" fill="none" xmlns="http://www.w3.org/2000/svg">
<path d="M800.553 463.894L801.113 464.175L801.61 463.793L807.585 459.197L818.079 465.128L825.916 520.477L715.544 585.314L703.403 576.909L693.12 524.515L707.493 516.37L708 516.083V515.5V511.08L714.094 507.598L719.158 509.44L719.613 509.605L720.025 509.351L737.025 498.851L737.699 498.435L737.449 497.684L736.667 495.338L741.177 491.648L745.629 493.428L746.077 493.608L746.496 493.368L763.996 483.368L764.5 483.08V482.5V479.118L770.409 476.164L773.419 478.314L774.008 478.734L774.591 478.306L789.591 467.306L790 467.007V466.5V463.618L795 461.118L800.553 463.894Z" fill="#FF6100" fill-opacity="0.2" stroke="#FF6100" stroke-width="2"/>
</svg>
