<svg width="1547" height="188" viewBox="0 0 1547 188" fill="none" xmlns="http://www.w3.org/2000/svg">
<path d="M183.782 148H167.096C165.86 148 164.967 147.519 164.418 146.558L115.184 79.402L102.206 94.028V145.734C102.206 147.245 101.382 148 99.734 148H87.168C85.52 148 84.696 147.245 84.696 145.734V94.028L71.718 79.402L22.484 146.558C21.9347 147.519 20.9733 148 19.6 148H3.12C2.15867 148 1.54067 147.725 1.266 147.176C0.991333 146.627 1.12867 145.94 1.678 145.116L60.594 66.424L6.004 3.59399C4.63067 1.67133 5.11133 0.709993 7.446 0.709993H23.72C25.0933 0.709993 26.0547 1.19066 26.604 2.152L84.696 71.986V2.97599C84.696 1.46532 85.52 0.709993 87.168 0.709993H99.734C101.382 0.709993 102.206 1.46532 102.206 2.97599V71.986C104.129 69.6513 123.493 46.3733 160.298 2.152C160.847 1.19066 161.809 0.709993 163.182 0.709993H179.456C180.555 0.709993 181.173 0.98466 181.31 1.53399C181.585 2.08333 181.379 2.77 180.692 3.59399L126.308 66.424L185.224 145.116C185.773 145.94 185.911 146.627 185.636 147.176C185.361 147.725 184.743 148 183.782 148ZM215.298 148H202.526C200.878 148 200.054 147.245 200.054 145.734V2.97599C200.054 1.46532 200.878 0.709993 202.526 0.709993H215.298C216.809 0.709993 217.564 1.46532 217.564 2.97599V71.162L281.218 2.152C282.18 1.19066 283.21 0.709993 284.308 0.709993H300.788C301.887 0.709993 302.574 1.05333 302.848 1.73999C303.123 2.28933 302.917 2.90733 302.23 3.59399L243.108 67.042L306.35 145.116C306.9 145.94 307.037 146.627 306.762 147.176C306.488 147.725 305.87 148 304.908 148H288.222C286.849 148 285.888 147.519 285.338 146.558L231.366 79.402L217.564 93.616V145.734C217.564 147.245 216.809 148 215.298 148ZM390.88 133.374H377.696C376.322 133.374 375.361 132.893 374.812 131.932L346.384 89.702C345.834 88.6033 345.834 87.5047 346.384 86.406L374.812 44.176C375.361 43.2147 376.322 42.734 377.696 42.734H390.88C393.077 42.734 393.558 43.6953 392.322 45.618L363.482 88.054L392.322 130.49C393.558 132.413 393.077 133.374 390.88 133.374ZM433.316 133.374H420.132C418.758 133.374 417.797 132.893 417.248 131.932L388.82 89.702C388.27 88.6033 388.27 87.5047 388.82 86.406L417.248 44.176C417.797 43.2147 418.758 42.734 420.132 42.734H433.316C435.513 42.734 435.994 43.6953 434.758 45.618L405.918 88.054L434.758 130.49C435.994 132.413 435.513 133.374 433.316 133.374ZM571.263 174.986H559.109C557.599 174.986 556.843 174.231 556.843 172.72V148H458.787C457.139 148 456.315 147.245 456.315 145.734V2.97599C456.315 1.46532 457.139 0.709993 458.787 0.709993H471.559C473.07 0.709993 473.825 1.46532 473.825 2.97599V131.726H541.393V2.97599C541.393 1.46532 542.149 0.709993 543.659 0.709993H556.431C558.079 0.709993 558.903 1.46532 558.903 2.97599V131.726H571.263C572.911 131.726 573.735 132.481 573.735 133.992V172.72C573.735 174.231 572.911 174.986 571.263 174.986ZM671.664 80.226V100.414C671.664 102.062 670.909 102.886 669.398 102.886H602.036V111.538C602.036 119.091 604.508 124.928 609.452 129.048C614.396 133.168 620.851 135.228 628.816 135.228C640.077 135.228 650.583 131.383 660.334 123.692C661.707 122.868 662.806 123.074 663.63 124.31L669.604 132.138C670.565 133.237 670.428 134.335 669.192 135.434C657.381 145.322 643.785 150.266 628.404 150.266C616.456 150.266 606.225 146.901 597.71 140.172C589.195 133.305 584.938 123.761 584.938 111.538V80.226C584.938 66.9047 589.127 56.742 597.504 49.738C606.019 42.734 616.387 39.232 628.61 39.232C640.695 39.232 650.858 42.734 659.098 49.738C667.475 56.742 671.664 66.9047 671.664 80.226ZM655.184 80.226C655.184 71.8487 652.712 65.4627 647.768 61.068C642.961 56.6733 636.575 54.476 628.61 54.476C620.507 54.476 614.053 56.6733 609.246 61.068C604.439 65.3253 602.036 71.7113 602.036 80.226V88.878H655.184V80.226ZM703.507 148H691.353C689.842 148 689.087 147.245 689.087 145.734V43.97C689.087 42.322 689.842 41.498 691.353 41.498H703.507C705.155 41.498 705.979 42.322 705.979 43.97V85.17H756.243V43.97C756.243 42.322 756.998 41.498 758.509 41.498H770.663C772.311 41.498 773.135 42.322 773.135 43.97V145.734C773.135 147.245 772.311 148 770.663 148H758.509C756.998 148 756.243 147.245 756.243 145.734V100.208H705.979V145.734C705.979 147.245 705.155 148 703.507 148ZM833.678 148H821.318C819.808 148 819.052 147.245 819.052 145.734V56.742H786.916C785.268 56.742 784.444 55.918 784.444 54.27V43.97C784.444 42.322 785.268 41.498 786.916 41.498H867.874C869.522 41.498 870.346 42.322 870.346 43.97V54.27C870.346 55.918 869.522 56.742 867.874 56.742H835.944V145.734C835.944 147.245 835.189 148 833.678 148ZM883.163 46.648C895.935 41.704 909.257 39.232 923.127 39.232C937.273 39.232 948.465 42.94 956.705 50.356C964.945 57.6347 969.065 68.8273 969.065 83.934V106.594C969.065 120.19 964.945 130.902 956.705 138.73C948.465 146.421 937.547 150.266 923.951 150.266C914.475 150.266 905.961 148.137 898.407 143.88V184.874C898.407 186.385 897.583 187.14 895.935 187.14H883.781C882.271 187.14 881.515 186.385 881.515 184.874V49.326C881.515 47.9527 882.065 47.06 883.163 46.648ZM922.921 135.228C942.285 135.228 951.967 125.683 951.967 106.594V83.934C951.967 64.0207 942.217 54.064 922.715 54.064C913.102 54.064 904.999 55.4373 898.407 58.184V127.812C905.549 132.756 913.72 135.228 922.921 135.228ZM1046.85 148H1033.87C1032.23 148 1031.4 147.245 1031.4 145.734V2.97599C1031.4 1.46532 1032.23 0.709993 1033.87 0.709993H1133.37C1135.02 0.709993 1135.84 1.46532 1135.84 2.97599V145.734C1135.84 147.245 1135.02 148 1133.37 148H1120.39C1118.88 148 1118.13 147.245 1118.13 145.734V16.778H1049.12V145.734C1049.12 147.245 1048.36 148 1046.85 148ZM1160.47 49.944C1170.91 42.8027 1183.89 39.232 1199.41 39.232C1212.32 39.232 1222.34 42.6653 1229.48 49.532C1236.76 56.2613 1240.4 66.1493 1240.4 79.196V140.996C1240.4 142.369 1239.78 143.262 1238.55 143.674C1226.46 148.069 1213.21 150.266 1198.79 150.266C1186.02 150.266 1175.44 147.519 1167.07 142.026C1158.69 136.533 1154.5 128.018 1154.5 116.482C1154.5 105.907 1158.48 97.8047 1166.45 92.174C1174.41 86.5433 1185.19 83.728 1198.79 83.728C1205.93 83.728 1214.17 84.552 1223.51 86.2V79.608C1223.51 71.0933 1221.59 64.776 1217.74 60.656C1213.9 56.536 1207.58 54.476 1198.79 54.476C1187.8 54.476 1178.05 57.0167 1169.54 62.098C1168.3 62.922 1167.27 62.716 1166.45 61.48L1160.47 52.828C1159.79 51.592 1159.79 50.6307 1160.47 49.944ZM1171.39 116.482C1171.39 122.525 1173.86 127.194 1178.81 130.49C1183.89 133.649 1190.55 135.228 1198.79 135.228C1207.03 135.228 1215.27 133.992 1223.51 131.52V100.62C1214.72 98.972 1206.48 98.148 1198.79 98.148C1180.53 98.148 1171.39 104.259 1171.39 116.482ZM1262.6 46.648C1275.37 41.704 1288.69 39.232 1302.56 39.232C1316.71 39.232 1327.9 42.94 1336.14 50.356C1344.38 57.6347 1348.5 68.8273 1348.5 83.934V106.594C1348.5 120.19 1344.38 130.902 1336.14 138.73C1327.9 146.421 1316.98 150.266 1303.39 150.266C1293.91 150.266 1285.39 148.137 1277.84 143.88V184.874C1277.84 186.385 1277.02 187.14 1275.37 187.14H1263.22C1261.7 187.14 1260.95 186.385 1260.95 184.874V49.326C1260.95 47.9527 1261.5 47.06 1262.6 46.648ZM1302.36 135.228C1321.72 135.228 1331.4 125.683 1331.4 106.594V83.934C1331.4 64.0207 1321.65 54.064 1302.15 54.064C1292.54 54.064 1284.43 55.4373 1277.84 58.184V127.812C1284.98 132.756 1293.15 135.228 1302.36 135.228ZM1451.29 148H1436.87C1435.64 148 1434.61 147.519 1433.78 146.558L1394.85 99.796L1383.11 111.538V145.734C1383.11 147.245 1382.28 148 1380.63 148H1368.89C1367.38 148 1366.63 147.245 1366.63 145.734V43.97C1366.63 42.322 1367.38 41.498 1368.89 41.498H1380.63C1382.28 41.498 1383.11 42.322 1383.11 43.97V90.732L1430.49 42.734C1431.17 41.91 1432.13 41.498 1433.37 41.498H1448.2C1449.16 41.498 1449.78 41.8413 1450.06 42.528C1450.33 43.0773 1450.12 43.6953 1449.44 44.382L1406.18 88.054L1452.73 145.116C1453.28 145.94 1453.42 146.627 1453.15 147.176C1452.87 147.725 1452.25 148 1451.29 148ZM1472.12 133.374H1458.94C1456.74 133.374 1456.26 132.413 1457.5 130.49L1486.34 88.054L1457.5 45.618C1456.26 43.6953 1456.74 42.734 1458.94 42.734H1472.12C1473.5 42.734 1474.46 43.2147 1475.01 44.176L1503.43 86.406C1503.98 87.5047 1503.98 88.6033 1503.43 89.702L1475.01 131.932C1474.46 132.893 1473.5 133.374 1472.12 133.374ZM1514.56 133.374H1501.37C1499.18 133.374 1498.7 132.413 1499.93 130.49L1528.77 88.054L1499.93 45.618C1498.7 43.6953 1499.18 42.734 1501.37 42.734H1514.56C1515.93 42.734 1516.89 43.2147 1517.44 44.176L1545.87 86.406C1546.42 87.5047 1546.42 88.6033 1545.87 89.702L1517.44 131.932C1516.89 132.893 1515.93 133.374 1514.56 133.374Z" fill="#FF6100"/>
</svg>
