<svg width="1549" height="155" viewBox="0 0 1549 155" fill="none" xmlns="http://www.w3.org/2000/svg">
<path d="M151.49 122H137.72C136.7 122 135.963 121.603 135.51 120.81L94.88 65.39L84.17 77.46V120.13C84.17 121.377 83.49 122 82.13 122H71.76C70.4 122 69.72 121.377 69.72 120.13V77.46L59.01 65.39L18.38 120.81C17.9267 121.603 17.1333 122 16 122H2.4C1.60667 122 1.09667 121.773 0.87 121.32C0.643333 120.867 0.756667 120.3 1.21 119.62L49.83 54.68L4.78 2.82999C3.64667 1.24333 4.04333 0.449994 5.97 0.449994H19.4C20.5333 0.449994 21.3267 0.846663 21.78 1.64L69.72 59.27V2.31999C69.72 1.07333 70.4 0.449994 71.76 0.449994H82.13C83.49 0.449994 84.17 1.07333 84.17 2.31999V59.27C85.7567 57.3433 101.737 38.1333 132.11 1.64C132.563 0.846663 133.357 0.449994 134.49 0.449994H147.92C148.827 0.449994 149.337 0.676661 149.45 1.13C149.677 1.58333 149.507 2.15 148.94 2.82999L104.06 54.68L152.68 119.62C153.133 120.3 153.247 120.867 153.02 121.32C152.793 121.773 152.283 122 151.49 122ZM177.499 122H166.959C165.599 122 164.919 121.377 164.919 120.13V2.31999C164.919 1.07333 165.599 0.449994 166.959 0.449994H177.499C178.745 0.449994 179.369 1.07333 179.369 2.31999V58.59L231.899 1.64C232.692 0.846663 233.542 0.449994 234.449 0.449994H248.049C248.955 0.449994 249.522 0.733327 249.749 1.29999C249.975 1.75333 249.805 2.26333 249.239 2.82999L200.449 55.19L252.639 119.62C253.092 120.3 253.205 120.867 252.979 121.32C252.752 121.773 252.242 122 251.449 122H237.679C236.545 122 235.752 121.603 235.299 120.81L190.759 65.39L179.369 77.12V120.13C179.369 121.377 178.745 122 177.499 122ZM322.396 109.93H311.516C310.382 109.93 309.589 109.533 309.136 108.74L285.676 73.89C285.222 72.9833 285.222 72.0767 285.676 71.17L309.136 36.32C309.589 35.5267 310.382 35.13 311.516 35.13H322.396C324.209 35.13 324.606 35.9233 323.586 37.51L299.786 72.53L323.586 107.55C324.606 109.137 324.209 109.93 322.396 109.93ZM357.416 109.93H346.536C345.402 109.93 344.609 109.533 344.156 108.74L320.696 73.89C320.242 72.9833 320.242 72.0767 320.696 71.17L344.156 36.32C344.609 35.5267 345.402 35.13 346.536 35.13H357.416C359.229 35.13 359.626 35.9233 358.606 37.51L334.806 72.53L358.606 107.55C359.626 109.137 359.229 109.93 357.416 109.93ZM370.616 38.53C370.616 26.63 374.299 17.3367 381.666 10.65C389.033 3.84999 399.289 0.449994 412.436 0.449994H453.576C454.823 0.449994 455.446 1.07333 455.446 2.31999V120.13C455.446 121.377 454.823 122 453.576 122H443.036C441.676 122 440.996 121.377 440.996 120.13V76.1H417.196L384.556 120.81C383.876 121.603 383.083 122 382.176 122H368.576C367.783 122 367.273 121.773 367.046 121.32C366.819 120.867 366.933 120.3 367.386 119.62L401.386 74.74C391.753 73.1533 384.216 69.2433 378.776 63.01C373.336 56.6633 370.616 48.5033 370.616 38.53ZM412.606 62.67H440.996V14.05H412.606C403.766 14.05 397.023 16.1467 392.376 20.34C387.729 24.5333 385.406 30.6533 385.406 38.7C385.406 46.52 387.729 52.47 392.376 56.55C397.023 60.63 403.766 62.67 412.606 62.67ZM547.17 122H535.27C534.25 122 533.4 121.603 532.72 120.81L500.59 82.22L490.9 91.91V120.13C490.9 121.377 490.22 122 488.86 122H479.17C477.924 122 477.3 121.377 477.3 120.13V36.15C477.3 34.79 477.924 34.11 479.17 34.11H488.86C490.22 34.11 490.9 34.79 490.9 36.15V74.74L530 35.13C530.567 34.45 531.36 34.11 532.38 34.11H544.62C545.414 34.11 545.924 34.3933 546.15 34.96C546.377 35.4133 546.207 35.9233 545.64 36.49L509.94 72.53L548.36 119.62C548.814 120.3 548.927 120.867 548.7 121.32C548.474 121.773 547.964 122 547.17 122ZM623.458 90.55C623.458 100.637 620.058 108.74 613.258 114.86C606.571 120.867 597.505 123.87 586.058 123.87C574.611 123.87 565.488 120.81 558.688 114.69C552.001 108.57 548.658 100.523 548.658 90.55V66.07C548.658 55.9833 552.058 47.8233 558.858 41.59C565.658 35.3567 574.725 32.24 586.058 32.24C597.505 32.24 606.571 35.3567 613.258 41.59C620.058 47.8233 623.458 55.9833 623.458 66.07V90.55ZM562.768 90.55C562.768 97.01 564.751 102.11 568.718 105.85C572.798 109.59 578.578 111.46 586.058 111.46C593.538 111.46 599.318 109.59 603.398 105.85C607.478 102.11 609.518 97.01 609.518 90.55V66.07C609.518 59.4967 607.478 54.34 603.398 50.6C599.318 46.7467 593.538 44.82 586.058 44.82C578.578 44.82 572.798 46.7467 568.718 50.6C564.751 54.34 562.768 59.4967 562.768 66.07V90.55ZM675.144 122H640.464C639.218 122 638.594 121.377 638.594 120.13V36.15C638.594 34.79 639.218 34.11 640.464 34.11H675.144C684.664 34.11 692.088 36.2633 697.414 40.57C702.741 44.8767 705.404 50.3733 705.404 57.06C705.404 66.0133 701.154 72.19 692.654 75.59C703.308 79.4433 708.634 86.81 708.634 97.69C708.634 104.83 705.631 110.667 699.624 115.2C693.618 119.733 685.458 122 675.144 122ZM652.534 45.67V71.34H674.634C679.848 71.34 683.928 70.2067 686.874 67.94C689.934 65.6733 691.464 62.4433 691.464 58.25C691.464 54.2833 689.991 51.2233 687.044 49.07C684.211 46.8033 680.074 45.67 674.634 45.67H652.534ZM652.534 82.22V110.61H674.634C687.894 110.61 694.524 105.793 694.524 96.16C694.524 86.8667 687.894 82.22 674.634 82.22H652.534ZM742.053 91.74C740.126 103.3 737.179 111.29 733.213 115.71C729.246 120.13 722.956 122.453 714.343 122.68C713.096 122.68 712.473 122.057 712.473 120.81V112.14C712.473 111.007 713.096 110.327 714.343 110.1C718.309 109.873 721.369 108.287 723.523 105.34C725.676 102.393 727.376 96.7267 728.623 88.34C730.436 75.8733 731.853 58.4767 732.873 36.15C732.873 34.79 733.553 34.11 734.913 34.11H790.503C791.863 34.11 792.543 34.79 792.543 36.15V120.13C792.543 121.377 791.863 122 790.503 122H780.473C779.226 122 778.603 121.377 778.603 120.13V46.69H745.963C745.396 61.0833 744.093 76.1 742.053 91.74ZM879.356 66.07V82.73C879.356 84.09 878.732 84.77 877.486 84.77H821.896V91.91C821.896 98.1433 823.936 102.96 828.016 106.36C832.096 109.76 837.422 111.46 843.996 111.46C853.289 111.46 861.959 108.287 870.006 101.94C871.139 101.26 872.046 101.43 872.726 102.45L877.656 108.91C878.449 109.817 878.336 110.723 877.316 111.63C867.569 119.79 856.349 123.87 843.656 123.87C833.796 123.87 825.352 121.093 818.326 115.54C811.299 109.873 807.786 101.997 807.786 91.91V66.07C807.786 55.0767 811.242 46.69 818.156 40.91C825.182 35.13 833.739 32.24 843.826 32.24C853.799 32.24 862.186 35.13 868.986 40.91C875.899 46.69 879.356 55.0767 879.356 66.07ZM865.756 66.07C865.756 59.1567 863.716 53.8867 859.636 50.26C855.669 46.6333 850.399 44.82 843.826 44.82C837.139 44.82 831.812 46.6333 827.846 50.26C823.879 53.7733 821.896 59.0433 821.896 66.07V73.21H865.756V66.07ZM930.284 122H895.604C894.357 122 893.734 121.377 893.734 120.13V36.15C893.734 34.79 894.357 34.11 895.604 34.11H930.284C939.804 34.11 947.227 36.2633 952.554 40.57C957.881 44.8767 960.544 50.3733 960.544 57.06C960.544 66.0133 956.294 72.19 947.794 75.59C958.447 79.4433 963.774 86.81 963.774 97.69C963.774 104.83 960.771 110.667 954.764 115.2C948.757 119.733 940.597 122 930.284 122ZM907.674 45.67V71.34H929.774C934.987 71.34 939.067 70.2067 942.014 67.94C945.074 65.6733 946.604 62.4433 946.604 58.25C946.604 54.2833 945.131 51.2233 942.184 49.07C939.351 46.8033 935.214 45.67 929.774 45.67H907.674ZM907.674 82.22V110.61H929.774C943.034 110.61 949.664 105.793 949.664 96.16C949.664 86.8667 943.034 82.22 929.774 82.22H907.674ZM976.424 41.08C985.038 35.1867 995.748 32.24 1008.55 32.24C1019.21 32.24 1027.48 35.0733 1033.37 40.74C1039.38 46.2933 1042.38 54.4533 1042.38 65.22V116.22C1042.38 117.353 1041.87 118.09 1040.85 118.43C1030.88 122.057 1019.94 123.87 1008.04 123.87C997.504 123.87 988.778 121.603 981.864 117.07C974.951 112.537 971.494 105.51 971.494 95.99C971.494 87.2633 974.781 80.5767 981.354 75.93C987.928 71.2833 996.824 68.96 1008.04 68.96C1013.94 68.96 1020.74 69.64 1028.44 71V65.56C1028.44 58.5333 1026.86 53.32 1023.68 49.92C1020.51 46.52 1015.3 44.82 1008.04 44.82C998.978 44.82 990.931 46.9167 983.904 51.11C982.884 51.79 982.034 51.62 981.354 50.6L976.424 43.46C975.858 42.44 975.858 41.6467 976.424 41.08ZM985.434 95.99C985.434 100.977 987.474 104.83 991.554 107.55C995.748 110.157 1001.24 111.46 1008.04 111.46C1014.84 111.46 1021.64 110.44 1028.44 108.4V82.9C1021.19 81.54 1014.39 80.86 1008.04 80.86C992.971 80.86 985.434 85.9033 985.434 95.99ZM1093.78 38.36C1104.32 34.28 1115.32 32.24 1126.76 32.24C1138.44 32.24 1147.67 35.3 1154.47 41.42C1161.27 47.4267 1164.67 56.6633 1164.67 69.13V87.83C1164.67 99.05 1161.27 107.89 1154.47 114.35C1147.67 120.697 1138.66 123.87 1127.44 123.87C1119.62 123.87 1112.6 122.113 1106.36 118.6V152.43C1106.36 153.677 1105.68 154.3 1104.32 154.3H1094.29C1093.05 154.3 1092.42 153.677 1092.42 152.43V40.57C1092.42 39.4367 1092.88 38.7 1093.78 38.36ZM1126.59 111.46C1142.57 111.46 1150.56 103.583 1150.56 87.83V69.13C1150.56 52.6967 1142.52 44.48 1126.42 44.48C1118.49 44.48 1111.8 45.6133 1106.36 47.88V105.34C1112.26 109.42 1119 111.46 1126.59 111.46ZM1251.2 90.55C1251.2 100.637 1247.8 108.74 1241 114.86C1234.32 120.867 1225.25 123.87 1213.8 123.87C1202.36 123.87 1193.23 120.81 1186.43 114.69C1179.75 108.57 1176.4 100.523 1176.4 90.55V66.07C1176.4 55.9833 1179.8 47.8233 1186.6 41.59C1193.4 35.3567 1202.47 32.24 1213.8 32.24C1225.25 32.24 1234.32 35.3567 1241 41.59C1247.8 47.8233 1251.2 55.9833 1251.2 66.07V90.55ZM1190.51 90.55C1190.51 97.01 1192.5 102.11 1196.46 105.85C1200.54 109.59 1206.32 111.46 1213.8 111.46C1221.28 111.46 1227.06 109.59 1231.14 105.85C1235.22 102.11 1237.26 97.01 1237.26 90.55V66.07C1237.26 59.4967 1235.22 54.34 1231.14 50.6C1227.06 46.7467 1221.28 44.82 1213.8 44.82C1206.32 44.82 1200.54 46.7467 1196.46 50.6C1192.5 54.34 1190.51 59.4967 1190.51 66.07V90.55ZM1383.98 144.27H1374.8C1373.55 144.27 1372.93 143.647 1372.93 142.4V122H1268.21C1266.96 122 1266.34 121.377 1266.34 120.13V36.15C1266.34 34.79 1266.96 34.11 1268.21 34.11H1278.24C1279.49 34.11 1280.11 34.79 1280.11 36.15V109.42H1313.94V36.15C1313.94 34.79 1314.56 34.11 1315.81 34.11H1325.84C1327.09 34.11 1327.71 34.79 1327.71 36.15V109.42H1361.54V36.15C1361.54 34.79 1362.16 34.11 1363.41 34.11H1373.44C1374.69 34.11 1375.31 34.79 1375.31 36.15V109.59H1383.98C1385.23 109.59 1385.85 110.213 1385.85 111.46V142.4C1385.85 143.647 1385.23 144.27 1383.98 144.27ZM1396.01 41.08C1404.63 35.1867 1415.34 32.24 1428.14 32.24C1438.8 32.24 1447.07 35.0733 1452.96 40.74C1458.97 46.2933 1461.97 54.4533 1461.97 65.22V116.22C1461.97 117.353 1461.46 118.09 1460.44 118.43C1450.47 122.057 1439.53 123.87 1427.63 123.87C1417.09 123.87 1408.37 121.603 1401.45 117.07C1394.54 112.537 1391.08 105.51 1391.08 95.99C1391.08 87.2633 1394.37 80.5767 1400.94 75.93C1407.52 71.2833 1416.41 68.96 1427.63 68.96C1433.53 68.96 1440.33 69.64 1448.03 71V65.56C1448.03 58.5333 1446.45 53.32 1443.27 49.92C1440.1 46.52 1434.89 44.82 1427.63 44.82C1418.57 44.82 1410.52 46.9167 1403.49 51.11C1402.47 51.79 1401.62 51.62 1400.94 50.6L1396.01 43.46C1395.45 42.44 1395.45 41.6467 1396.01 41.08ZM1405.02 95.99C1405.02 100.977 1407.06 104.83 1411.14 107.55C1415.34 110.157 1420.83 111.46 1427.63 111.46C1434.43 111.46 1441.23 110.44 1448.03 108.4V82.9C1440.78 81.54 1433.98 80.86 1427.63 80.86C1412.56 80.86 1405.02 85.9033 1405.02 95.99ZM1487.09 109.93H1476.21C1474.4 109.93 1474 109.137 1475.02 107.55L1498.82 72.53L1475.02 37.51C1474 35.9233 1474.4 35.13 1476.21 35.13H1487.09C1488.22 35.13 1489.02 35.5267 1489.47 36.32L1512.93 71.17C1513.38 72.0767 1513.38 72.9833 1512.93 73.89L1489.47 108.74C1489.02 109.533 1488.22 109.93 1487.09 109.93ZM1522.11 109.93H1511.23C1509.42 109.93 1509.02 109.137 1510.04 107.55L1533.84 72.53L1510.04 37.51C1509.02 35.9233 1509.42 35.13 1511.23 35.13H1522.11C1523.24 35.13 1524.04 35.5267 1524.49 36.32L1547.95 71.17C1548.4 72.0767 1548.4 72.9833 1547.95 73.89L1524.49 108.74C1524.04 109.533 1523.24 109.93 1522.11 109.93Z" fill="#FF6100"/>
</svg>
