<svg width="607" height="205" viewBox="0 0 607 205" fill="none" xmlns="http://www.w3.org/2000/svg">
<path d="M112.92 45.52C112.92 53.52 111.08 60.64 107.4 66.88C103.88 72.96 98.92 77.52 92.52 80.56C101.32 83.76 108.12 89.04 112.92 96.4C117.72 103.6 120.12 112.24 120.12 122.32C120.12 138 114.92 150.24 104.52 159.04C94.28 167.68 79.8 172 61.08 172H3.24C1.32 172 0.36 171.12 0.36 169.36V3.03999C0.36 1.27999 1.32 0.399992 3.24 0.399992H61.32C78.12 0.399992 90.92 4.47999 99.72 12.64C108.52 20.64 112.92 31.6 112.92 45.52ZM20.76 153.52H61.32C73.48 153.52 82.84 150.96 89.4 145.84C96.12 140.56 99.48 132.72 99.48 122.32C99.48 112.56 96.36 104.88 90.12 99.28C84.04 93.52 74.92 90.64 62.76 90.64H20.76V153.52ZM92.28 45.52C92.28 37.2 89.64 30.72 84.36 26.08C79.08 21.28 71.4 18.88 61.32 18.88H20.76V72.16H62.76C71.88 72.16 79.08 69.92 84.36 65.44C89.64 60.96 92.28 54.32 92.28 45.52ZM158.452 172H141.412C139.652 172 138.772 171.12 138.772 169.36V50.8C138.772 48.88 139.652 47.92 141.412 47.92H155.572C157.332 47.92 158.212 48.88 158.212 50.8V114.64C158.212 117.36 158.132 122.24 157.972 129.28C157.972 136.16 157.972 141.04 157.972 143.92C166.772 127.92 173.812 115.92 179.092 107.92L217.733 49.84C218.533 48.56 219.653 47.92 221.093 47.92H237.892C239.653 47.92 240.533 48.88 240.533 50.8V169.36C240.533 171.12 239.653 172 237.892 172H223.972C222.053 172 221.093 171.12 221.093 169.36V107.44C221.093 98.96 221.253 88.96 221.573 77.44H221.332C214.932 89.44 208.052 101.04 200.692 112.24L161.812 170.32C161.172 171.44 160.052 172 158.452 172ZM268.018 204.88H254.578C252.818 204.88 251.938 203.92 251.938 202V157.12C251.938 155.36 252.818 154.48 254.578 154.48H259.858C265.458 151.12 269.778 142.4 272.818 128.32C276.018 114.08 278.818 88.24 281.218 50.8C281.218 48.88 282.098 47.92 283.858 47.92H360.418C362.338 47.92 363.298 48.88 363.298 50.8V154.48H375.778C377.698 154.48 378.658 155.36 378.658 157.12V202C378.658 203.92 377.698 204.88 375.778 204.88H362.578C360.658 204.88 359.698 203.92 359.698 202V172H270.658V202C270.658 203.92 269.778 204.88 268.018 204.88ZM299.458 65.68C298.018 91.44 295.858 111.44 292.978 125.68C290.258 139.76 286.498 149.36 281.698 154.48H343.618V65.68H299.458ZM487.699 93.04V116.56C487.699 118.48 486.819 119.44 485.059 119.44H406.579V129.52C406.579 138.32 409.459 145.12 415.219 149.92C420.979 154.72 428.499 157.12 437.779 157.12C450.899 157.12 463.139 152.64 474.499 143.68C476.099 142.72 477.379 142.96 478.339 144.4L485.299 153.52C486.419 154.8 486.259 156.08 484.819 157.36C471.059 168.88 455.219 174.64 437.299 174.64C423.379 174.64 411.459 170.72 401.539 162.88C391.619 154.88 386.659 143.76 386.659 129.52V93.04C386.659 77.52 391.539 65.68 401.299 57.52C411.219 49.36 423.299 45.28 437.539 45.28C451.619 45.28 463.459 49.36 473.059 57.52C482.819 65.68 487.699 77.52 487.699 93.04ZM468.499 93.04C468.499 83.28 465.619 75.84 459.859 70.72C454.259 65.6 446.819 63.04 437.539 63.04C428.099 63.04 420.579 65.6 414.979 70.72C409.379 75.68 406.579 83.12 406.579 93.04V103.12H468.499V93.04ZM606.638 127.6C606.638 141.84 601.838 153.28 592.238 161.92C582.798 170.4 569.998 174.64 553.838 174.64C537.678 174.64 524.798 170.32 515.198 161.68C505.758 153.04 501.038 141.68 501.038 127.6V93.04C501.038 78.8 505.838 67.28 515.438 58.48C525.038 49.68 537.838 45.28 553.838 45.28C569.998 45.28 582.798 49.68 592.238 58.48C601.838 67.28 606.638 78.8 606.638 93.04V127.6ZM520.958 127.6C520.958 136.72 523.758 143.92 529.358 149.2C535.118 154.48 543.278 157.12 553.838 157.12C564.398 157.12 572.558 154.48 578.318 149.2C584.078 143.92 586.958 136.72 586.958 127.6V93.04C586.958 83.76 584.078 76.48 578.318 71.2C572.558 65.76 564.398 63.04 553.838 63.04C543.278 63.04 535.118 65.76 529.358 71.2C523.758 76.48 520.958 83.76 520.958 93.04V127.6Z" fill="#F4F4F4"/>
</svg>
