<svg width="16" height="20" viewBox="0 0 16 20" fill="none" xmlns="http://www.w3.org/2000/svg">
<path d="M14.002 9.24805H2.00195V4.24805H14.002M12.502 15.248C12.1041 15.248 11.7226 15.09 11.4413 14.8087C11.16 14.5274 11.002 14.1459 11.002 13.748C11.002 13.3502 11.16 12.9687 11.4413 12.6874C11.7226 12.4061 12.1041 12.248 12.502 12.248C12.8998 12.248 13.2813 12.4061 13.5626 12.6874C13.8439 12.9687 14.002 13.3502 14.002 13.748C14.002 14.1459 13.8439 14.5274 13.5626 14.8087C13.2813 15.09 12.8998 15.248 12.502 15.248ZM3.50195 15.248C3.10413 15.248 2.7226 15.09 2.44129 14.8087C2.15999 14.5274 2.00195 14.1459 2.00195 13.748C2.00195 13.3502 2.15999 12.9687 2.44129 12.6874C2.7226 12.4061 3.10413 12.248 3.50195 12.248C3.89978 12.248 4.28131 12.4061 4.56261 12.6874C4.84392 12.9687 5.00195 13.3502 5.00195 13.748C5.00195 14.1459 4.84392 14.5274 4.56261 14.8087C4.28131 15.09 3.89978 15.248 3.50195 15.248ZM0.00195312 14.248C0.00195312 15.128 0.391953 15.918 1.00195 16.468V18.248C1.00195 18.5133 1.10731 18.7676 1.29485 18.9552C1.48238 19.1427 1.73674 19.248 2.00195 19.248H3.00195C3.26717 19.248 3.52152 19.1427 3.70906 18.9552C3.8966 18.7676 4.00195 18.5133 4.00195 18.248V17.248H12.002V18.248C12.002 18.5133 12.1073 18.7676 12.2948 18.9552C12.4824 19.1427 12.7367 19.248 13.002 19.248H14.002C14.2672 19.248 14.5215 19.1427 14.7091 18.9552C14.8966 18.7676 15.002 18.5133 15.002 18.248V16.468C15.612 15.918 16.002 15.128 16.002 14.248V4.24805C16.002 0.748047 12.422 0.248047 8.00195 0.248047C3.58195 0.248047 0.00195312 0.748047 0.00195312 4.24805V14.248Z" fill="#FF6100"/>
</svg>
