<svg width="20" height="19" viewBox="0 0 20 19" fill="none" xmlns="http://www.w3.org/2000/svg">
<path fill-rule="evenodd" clip-rule="evenodd" d="M8.46027 0.781929C8.63923 0.567232 8.86121 0.392429 9.11188 0.268795C9.36256 0.145162 9.63636 0.0754439 9.91564 0.0641372C10.1949 0.0528305 10.4735 0.100186 10.7333 0.203151C10.9932 0.306115 11.2285 0.462401 11.4243 0.661929L11.5323 0.781929L15.4643 5.49993H18.4493C18.6591 5.49948 18.8667 5.54337 19.0584 5.62872C19.2501 5.71408 19.4217 5.83896 19.5618 5.99521C19.7019 6.15145 19.8074 6.33553 19.8714 6.53538C19.9354 6.73524 19.9565 6.94636 19.9333 7.15493L19.8413 7.92093L19.7413 8.66093L19.6593 9.21493L19.5643 9.80993L19.4563 10.4349L19.3343 11.0829L19.1983 11.7439C19.1263 12.0769 19.0493 12.4109 18.9663 12.7429C18.7449 13.621 18.467 14.4838 18.1343 15.3259L17.9133 15.8659L17.6993 16.3539L17.4973 16.7879L17.4033 16.9819L17.1543 17.4719C16.8343 18.0819 16.2303 18.4419 15.5913 18.4939L15.4313 18.4999H4.55127C4.20165 18.5027 3.85786 18.4103 3.55666 18.2328C3.25547 18.0552 3.00819 17.7991 2.84127 17.4919L2.60927 17.0419L2.42927 16.6719C2.39722 16.6038 2.36555 16.5354 2.33427 16.4669L2.13427 16.0179C1.67771 14.9574 1.30719 13.8619 1.02627 12.7419C0.972006 12.5245 0.920004 12.3065 0.870269 12.0879L0.728269 11.4399L0.601269 10.8059L0.489269 10.1929L0.389269 9.60593L0.302269 9.05193L0.228269 8.53893L0.138269 7.85593L0.0722693 7.29993C0.066504 7.24894 0.0608373 7.19794 0.0552693 7.14693C0.0343074 6.95042 0.0527 6.7517 0.109373 6.56238C0.166047 6.37306 0.259866 6.19692 0.385353 6.04425C0.510841 5.89158 0.665483 5.76543 0.840253 5.67318C1.01502 5.58092 1.20642 5.52441 1.40327 5.50693L1.53927 5.49993H4.52827L8.46027 0.781929ZM7.95727 10.2219C7.88962 9.98599 7.73756 9.78316 7.53004 9.65208C7.32253 9.521 7.07405 9.47082 6.83193 9.51109C6.5898 9.55136 6.37095 9.67927 6.21703 9.87047C6.06312 10.0617 5.9849 10.3028 5.99727 10.5479L6.01027 10.6639L6.51027 13.6639L6.53527 13.7779C6.60292 14.0139 6.75498 14.2167 6.96249 14.3478C7.17001 14.4789 7.41849 14.529 7.66061 14.4888C7.90274 14.4485 8.12159 14.3206 8.27551 14.1294C8.42942 13.9382 8.50764 13.6971 8.49527 13.4519L8.48227 13.3359L7.98227 10.3359L7.95727 10.2219ZM13.1603 9.51393C12.9186 9.47361 12.6705 9.52344 12.4631 9.65396C12.2557 9.78447 12.1035 9.98658 12.0353 10.2219L12.0103 10.3359L11.5103 13.3359C11.4685 13.5875 11.5245 13.8456 11.6667 14.0573C11.809 14.269 12.0267 14.4183 12.2754 14.4748C12.5241 14.5312 12.785 14.4905 13.0047 14.361C13.2244 14.2315 13.3863 14.0229 13.4573 13.7779L13.4823 13.6639L13.9823 10.6639C14.0256 10.4024 13.9634 10.1344 13.8093 9.9188C13.6552 9.70316 13.4217 9.55754 13.1603 9.51393ZM9.99627 2.06193L7.13127 5.49993H12.8613L9.99627 2.06193Z" fill="#FF6100"/>
</svg>
