<svg width="22" height="23" fill="none" xmlns="http://www.w3.org/2000/svg">
    <path style="color:#000;fill:#ff6100;-inkscape-stroke:none" d="M12.902 20.165v-6.513h6.513a1.902 1.902 0 1 0 0-3.805h-6.513V3.334a1.903 1.903 0 1 0-3.805 0v6.513H2.584a1.903 1.903 0 0 0-1.345 3.248l.353-.353-.353.353c.357.357.84.557 1.345.557h6.513v6.513a1.903 1.903 0 1 0 3.805 0z"/>
    <path style="color:#000;fill:#ff6100;-inkscape-stroke:none" d="M11 .932a2.404 2.404 0 0 0-2.402 2.402v6.014H2.584A2.403 2.403 0 0 0 .182 11.75c0 .45.263.823.496 1.2l-.147.146.354.353.353.354.147-.147c.376.233.75.496 1.199.496h6.014v6.014A2.405 2.405 0 0 0 11 22.568a2.405 2.405 0 0 0 2.402-2.402v-6.014h6.014a2.405 2.405 0 0 0 2.402-2.402 2.405 2.405 0 0 0-2.402-2.402h-6.014V3.334A2.403 2.403 0 0 0 11 .932Zm0 1a1.402 1.402 0 0 1 1.402 1.402v7.014h7.014a1.404 1.404 0 0 1 .99 2.395c-.263.262-.618.41-.99.41h-7.014v7.013a1.404 1.404 0 0 1-2.395.99 1.398 1.398 0 0 1-.41-.99v-7.014H2.585a1.402 1.402 0 1 1 0-2.804h7.014V3.334A1.402 1.402 0 0 1 11 1.932Z"/>
</svg>
