<svg width="8" height="7" viewBox="0 0 8 7" fill="none" xmlns="http://www.w3.org/2000/svg">
<path d="M0.311442 5.85739L2.66847 3.50037L0.311443 1.14335C0.186419 1.01832 0.116181 0.848751 0.116181 0.67194C0.116181 0.495128 0.186419 0.32556 0.311443 0.200535C0.436467 0.0755114 0.606036 0.00527315 0.782847 0.00527349C0.959658 0.00527315 1.12923 0.0755114 1.25425 0.200536L3.61127 2.55756L5.9683 0.200535C6.09332 0.0755103 6.26289 0.00527267 6.4397 0.00527271C6.61651 0.00527275 6.78608 0.0755104 6.91111 0.200535C7.03613 0.325559 7.10637 0.495128 7.10637 0.671939C7.10637 0.84875 7.03613 1.01832 6.91111 1.14334L4.55408 3.50037L6.91111 5.85739C7.03613 5.98241 7.10637 6.15198 7.10637 6.32879C7.10637 6.50561 7.03613 6.67517 6.91111 6.8002C6.78608 6.92522 6.61651 6.99546 6.4397 6.99546C6.26289 6.99546 6.09332 6.92522 5.9683 6.8002L3.61127 4.44318L1.25425 6.8002C1.12923 6.92522 0.959658 6.99546 0.782846 6.99546C0.606035 6.99546 0.436467 6.92522 0.311443 6.8002C0.186418 6.67517 0.11618 6.50561 0.11618 6.3288C0.11618 6.15198 0.186418 5.98241 0.311442 5.85739Z" fill="#FF6100"/>
</svg>
