<svg width="40" height="36" viewBox="0 0 40 36" fill="none" xmlns="http://www.w3.org/2000/svg">
<path d="M34 19.1964V35.667H6V19.1964H0L20 0.666992L40 19.1964H34ZM27.06 17.1993L24.94 15.017L12.94 27.3699L15.06 29.5523L27.06 17.1993ZM17.26 15.8405C16.8 15.3464 16.16 15.0788 15.5 15.0788C14.84 15.0788 14.2 15.3464 13.74 15.8405C13.26 16.3141 13 16.9729 13 17.6523C13 18.3317 13.26 18.9905 13.74 19.4641C14.2 19.9582 14.84 20.2258 15.5 20.2258C16.16 20.2258 16.8 19.9582 17.26 19.4641C17.74 18.9905 18 18.3317 18 17.6523C18 16.9729 17.74 16.3141 17.26 15.8405ZM26.26 25.1052C25.8 24.6111 25.16 24.3435 24.5 24.3435C23.84 24.3435 23.2 24.6111 22.74 25.1052C22.26 25.5788 22 26.2376 22 26.917C22 27.5964 22.26 28.2552 22.74 28.7288C23.2 29.2229 23.84 29.4905 24.5 29.4905C25.16 29.4905 25.8 29.2229 26.26 28.7288C26.74 28.2552 27 27.5964 27 26.917C27 26.2376 26.74 25.5788 26.26 25.1052Z" fill="#FF6100"/>
</svg>
