<svg width="36" height="36" viewBox="0 0 36 36" fill="none" xmlns="http://www.w3.org/2000/svg">
<path fill-rule="evenodd" clip-rule="evenodd" d="M15.6423 1.50603C16.2323 0.916815 17.0217 0.570115 17.8547 0.534325C18.6878 0.498535 19.504 0.776254 20.1423 1.31269L20.3556 1.50769L23.5223 4.67269H27.999C28.8396 4.67285 29.6492 4.99064 30.2655 5.56242C30.8818 6.1342 31.2593 6.91772 31.3223 7.75602L31.3323 8.00603V12.4827L34.499 15.6494C35.0887 16.2394 35.4356 17.0291 35.4714 17.8626C35.5072 18.696 35.2292 19.5126 34.6923 20.151L34.4973 20.3627L31.3306 23.5294V28.006C31.3309 28.847 31.0133 29.657 30.4415 30.2736C29.8697 30.8902 29.0859 31.268 28.2473 31.331L27.999 31.3394H23.524L20.3573 34.506C19.7672 35.0957 18.9775 35.4427 18.1441 35.4785C17.3107 35.5143 16.4941 35.2363 15.8556 34.6994L15.644 34.506L12.4773 31.3394H7.99898C7.15801 31.3396 6.34803 31.022 5.73139 30.4502C5.11476 29.8784 4.73705 29.0946 4.67397 28.256L4.66564 28.006V23.5294L1.49897 20.3627C0.909298 19.7726 0.562303 18.9829 0.52651 18.1495C0.490716 17.316 0.768725 16.4995 1.30564 15.861L1.49897 15.6494L4.66564 12.4827V8.00603C4.6658 7.16535 4.98359 6.35578 5.55537 5.7395C6.12715 5.12322 6.91067 4.74574 7.74897 4.68269L7.99898 4.67269H12.4756L15.6423 1.50603ZM23.1306 12.9777L16.0573 20.051L13.1106 17.1044C12.7979 16.7918 12.3738 16.6164 11.9317 16.6165C11.4896 16.6167 11.0657 16.7925 10.7531 17.1052C10.4406 17.4179 10.2651 17.842 10.2653 18.2841C10.2655 18.7262 10.4412 19.1502 10.754 19.4627L14.7606 23.4694C14.9309 23.6397 15.133 23.7748 15.3555 23.867C15.578 23.9592 15.8165 24.0066 16.0573 24.0066C16.2981 24.0066 16.5366 23.9592 16.7591 23.867C16.9816 23.7748 17.1837 23.6397 17.354 23.4694L25.4873 15.3344C25.7909 15.02 25.9589 14.599 25.9551 14.162C25.9513 13.725 25.776 13.307 25.467 12.998C25.158 12.689 24.74 12.5137 24.303 12.5099C23.866 12.5061 23.445 12.6741 23.1306 12.9777Z" fill="#FF6100"/>
</svg>
