<svg width="0" height="0" class="hidden">
  <symbol fill="none" xmlns="http://www.w3.org/2000/svg" viewBox="0 0 36 36" id="1">
    <path fill-rule="evenodd" clip-rule="evenodd" d="M18.0026 0.0859375C8.1076 0.0859375 0.0859375 8.1076 0.0859375 18.0026C0.0859375 27.8976 8.1076 35.9193 18.0026 35.9193C27.8976 35.9193 35.9193 27.8976 35.9193 18.0026C35.9193 8.1076 27.8976 0.0859375 18.0026 0.0859375ZM23.8359 21.7526C23.2834 21.7526 22.7535 21.9721 22.3628 22.3628C21.9721 22.7535 21.7526 23.2834 21.7526 23.8359C21.7526 24.3885 21.9721 24.9184 22.3628 25.3091C22.7535 25.6998 23.2834 25.9193 23.8359 25.9193C24.3885 25.9193 24.9184 25.6998 25.3091 25.3091C25.6998 24.9184 25.9193 24.3885 25.9193 23.8359C25.9193 23.2834 25.6998 22.7535 25.3091 22.3628C24.9184 21.9721 24.3885 21.7526 23.8359 21.7526ZM10.0859 12.1693C10.0859 11.6167 10.3054 11.0868 10.6961 10.6961C11.0868 10.3054 11.6167 10.0859 12.1693 10.0859C12.7218 10.0859 13.2517 10.3054 13.6424 10.6961C14.0331 11.0868 14.2526 11.6167 14.2526 12.1693C14.2526 12.7218 14.0331 13.2517 13.6424 13.6424C13.2517 14.0331 12.7218 14.2526 12.1693 14.2526C11.6167 14.2526 11.0868 14.0331 10.6961 13.6424C10.3054 13.2517 10.0859 12.7218 10.0859 12.1693ZM23.7859 10.4526C23.9004 10.3298 24.0384 10.2313 24.1917 10.163C24.345 10.0946 24.5106 10.0579 24.6784 10.055C24.8462 10.052 25.013 10.0829 25.1686 10.1457C25.3242 10.2086 25.4656 10.3022 25.5843 10.4209C25.703 10.5396 25.7966 10.681 25.8595 10.8366C25.9223 10.9923 25.9532 11.159 25.9503 11.3268C25.9473 11.4946 25.9106 11.6602 25.8422 11.8135C25.7739 11.9668 25.6754 12.1048 25.5526 12.2193L12.2193 25.5526C11.9823 25.7734 11.6689 25.8936 11.3451 25.8879C11.0212 25.8822 10.7123 25.751 10.4832 25.522C10.2542 25.293 10.123 24.984 10.1173 24.6601C10.1116 24.3363 10.2318 24.0229 10.4526 23.7859L23.7859 10.4526Z" fill="#FF6100"></path>
  </symbol>
  <symbol fill="none" xmlns="http://www.w3.org/2000/svg" viewBox="0 0 40 36" id="2">
    <path d="M34 19.1964V35.667H6V19.1964H0L20 0.666992L40 19.1964H34ZM27.06 17.1993L24.94 15.017L12.94 27.3699L15.06 29.5523L27.06 17.1993ZM17.26 15.8405C16.8 15.3464 16.16 15.0788 15.5 15.0788C14.84 15.0788 14.2 15.3464 13.74 15.8405C13.26 16.3141 13 16.9729 13 17.6523C13 18.3317 13.26 18.9905 13.74 19.4641C14.2 19.9582 14.84 20.2258 15.5 20.2258C16.16 20.2258 16.8 19.9582 17.26 19.4641C17.74 18.9905 18 18.3317 18 17.6523C18 16.9729 17.74 16.3141 17.26 15.8405ZM26.26 25.1052C25.8 24.6111 25.16 24.3435 24.5 24.3435C23.84 24.3435 23.2 24.6111 22.74 25.1052C22.26 25.5788 22 26.2376 22 26.917C22 27.5964 22.26 28.2552 22.74 28.7288C23.2 29.2229 23.84 29.4905 24.5 29.4905C25.16 29.4905 25.8 29.2229 26.26 28.7288C26.74 28.2552 27 27.5964 27 26.917C27 26.2376 26.74 25.5788 26.26 25.1052Z" fill="#FF6100"></path>
  </symbol>
  <symbol fill="none" xmlns="http://www.w3.org/2000/svg" viewBox="0 0 36 36" id="3">
    <path fill-rule="evenodd" clip-rule="evenodd" d="M15.6423 1.50603C16.2323 0.916815 17.0217 0.570115 17.8547 0.534325C18.6878 0.498535 19.504 0.776254 20.1423 1.31269L20.3556 1.50769L23.5223 4.67269H27.999C28.8396 4.67285 29.6492 4.99064 30.2655 5.56242C30.8818 6.1342 31.2593 6.91772 31.3223 7.75602L31.3323 8.00603V12.4827L34.499 15.6494C35.0887 16.2394 35.4356 17.0291 35.4714 17.8626C35.5072 18.696 35.2292 19.5126 34.6923 20.151L34.4973 20.3627L31.3306 23.5294V28.006C31.3309 28.847 31.0133 29.657 30.4415 30.2736C29.8697 30.8902 29.0859 31.268 28.2473 31.331L27.999 31.3394H23.524L20.3573 34.506C19.7672 35.0957 18.9775 35.4427 18.1441 35.4785C17.3107 35.5143 16.4941 35.2363 15.8556 34.6994L15.644 34.506L12.4773 31.3394H7.99898C7.15801 31.3396 6.34803 31.022 5.73139 30.4502C5.11476 29.8784 4.73705 29.0946 4.67397 28.256L4.66564 28.006V23.5294L1.49897 20.3627C0.909298 19.7726 0.562303 18.9829 0.52651 18.1495C0.490716 17.316 0.768725 16.4995 1.30564 15.861L1.49897 15.6494L4.66564 12.4827V8.00603C4.6658 7.16535 4.98359 6.35578 5.55537 5.7395C6.12715 5.12322 6.91067 4.74574 7.74897 4.68269L7.99898 4.67269H12.4756L15.6423 1.50603ZM23.1306 12.9777L16.0573 20.051L13.1106 17.1044C12.7979 16.7918 12.3738 16.6164 11.9317 16.6165C11.4896 16.6167 11.0657 16.7925 10.7531 17.1052C10.4406 17.4179 10.2651 17.842 10.2653 18.2841C10.2655 18.7262 10.4412 19.1502 10.754 19.4627L14.7606 23.4694C14.9309 23.6397 15.133 23.7748 15.3555 23.867C15.578 23.9592 15.8165 24.0066 16.0573 24.0066C16.2981 24.0066 16.5366 23.9592 16.7591 23.867C16.9816 23.7748 17.1837 23.6397 17.354 23.4694L25.4873 15.3344C25.7909 15.02 25.9589 14.599 25.9551 14.162C25.9513 13.725 25.776 13.307 25.467 12.998C25.158 12.689 24.74 12.5137 24.303 12.5099C23.866 12.5061 23.445 12.6741 23.1306 12.9777Z" fill="#FF6100"></path>
  </symbol>
</svg>