<svg width="25" height="17" viewBox="0 0 25 17" fill="none" xmlns="http://www.w3.org/2000/svg">
<path d="M19.1667 6.5V1.83333C19.1667 1.47971 19.0262 1.14057 18.7761 0.890525C18.5261 0.640476 18.187 0.5 17.8333 0.5H1.83333C1.47971 0.5 1.14057 0.640476 0.890524 0.890525C0.640476 1.14057 0.5 1.47971 0.5 1.83333V15.1667C0.5 15.5203 0.640476 15.8594 0.890524 16.1095C1.14057 16.3595 1.47971 16.5 1.83333 16.5H17.8333C18.187 16.5 18.5261 16.3595 18.7761 16.1095C19.0262 15.8594 19.1667 15.5203 19.1667 15.1667V10.5L24.5 15.8333V1.16667L19.1667 6.5Z" fill="white"/>
</svg>
