<svg width="22" height="26" viewBox="0 0 22 26" fill="none" xmlns="http://www.w3.org/2000/svg">
<path fill-rule="evenodd" clip-rule="evenodd" d="M13.9974 0.333333C13.9974 0.244928 13.9623 0.160143 13.8998 0.0976311C13.8373 0.035119 13.7525 0 13.6641 0H4.33073C3.35827 0 2.42564 0.386309 1.738 1.07394C1.05037 1.76158 0.664062 2.69421 0.664062 3.66667V22.3333C0.664062 23.3058 1.05037 24.2384 1.738 24.9261C2.42564 25.6137 3.35827 26 4.33073 26H17.6641C18.6365 26 19.5692 25.6137 20.2568 24.9261C20.9444 24.2384 21.3307 23.3058 21.3307 22.3333V9.196C21.3307 9.1076 21.2956 9.02281 21.2331 8.9603C21.1706 8.89779 21.0858 8.86267 20.9974 8.86267H14.9974C14.7322 8.86267 14.4778 8.75731 14.2903 8.56977C14.1028 8.38224 13.9974 8.12788 13.9974 7.86267V0.333333ZM14.9974 13.3333C15.2626 13.3333 15.517 13.4387 15.7045 13.6262C15.892 13.8138 15.9974 14.0681 15.9974 14.3333C15.9974 14.5985 15.892 14.8529 15.7045 15.0404C15.517 15.228 15.2626 15.3333 14.9974 15.3333H6.9974C6.73218 15.3333 6.47783 15.228 6.29029 15.0404C6.10275 14.8529 5.9974 14.5985 5.9974 14.3333C5.9974 14.0681 6.10275 13.8138 6.29029 13.6262C6.47783 13.4387 6.73218 13.3333 6.9974 13.3333H14.9974ZM14.9974 18.6667C15.2626 18.6667 15.517 18.772 15.7045 18.9596C15.892 19.1471 15.9974 19.4015 15.9974 19.6667C15.9974 19.9319 15.892 20.1862 15.7045 20.3738C15.517 20.5613 15.2626 20.6667 14.9974 20.6667H6.9974C6.73218 20.6667 6.47783 20.5613 6.29029 20.3738C6.10275 20.1862 5.9974 19.9319 5.9974 19.6667C5.9974 19.4015 6.10275 19.1471 6.29029 18.9596C6.47783 18.772 6.73218 18.6667 6.9974 18.6667H14.9974Z" fill="black"/>
</svg>
