<svg width="20" height="17" fill="none" xmlns="http://www.w3.org/2000/svg">
    <path style="color:#000;fill:#fff;-inkscape-stroke:none" d="M13.225.213a5.523 5.523 0 0 0-3.223 1.834C8.374.142 5.377-.595 2.98 1.039 1.685 1.921.891 3.407.836 4.971c-.059 1.76.693 3.377 2.068 5.082 1.383 1.714 3.351 3.493 5.768 5.68h.002l.1.091c.693.64 1.771.641 2.466.01l.088-.08.002-.002.03-.025c2.404-2.185 4.365-3.962 5.744-5.672C18.48 8.347 19.23 6.73 19.168 4.97c-.055-1.564-.849-3.05-2.145-3.932a5.088 5.088 0 0 0-3.798-.826zm5.943 4.758-.002-.053-.014-.053zm-5.797-3.774a4.103 4.103 0 0 1 3.088.666l.002.002c1.017.693 1.665 1.896 1.709 3.14v.003c.053 1.457-.549 2.811-1.846 4.42-1.299 1.61-3.234 3.374-5.638 5.558l-.024.022-.096.086a.824.824 0 0 1-1.115-.006l-.004-.004-.101-.092h-.002v-.002c-2.417-2.186-4.358-3.95-5.66-5.564-1.296-1.606-1.899-2.963-1.85-4.422.045-1.245.692-2.447 1.709-3.139l.004-.002c1.96-1.333 4.377-.708 5.695.834l.76.889.76-.889a4.519 4.519 0 0 1 2.61-1.5z"/>
</svg>
