<svg width="16" height="17" viewBox="0 0 16 17" fill="none" xmlns="http://www.w3.org/2000/svg">
<path fill-rule="evenodd" clip-rule="evenodd" d="M0.363429 7.40861C0.248804 7.5155 0.157389 7.64482 0.0948682 7.78854C0.032347 7.93226 5.52051e-05 8.08731 0 8.24404L0 14.7858C0 15.0109 0.0443413 15.2338 0.130492 15.4418C0.216643 15.6498 0.342917 15.8387 0.502103 15.9979C0.661289 16.1571 0.85027 16.2834 1.05826 16.3695C1.26624 16.4557 1.48916 16.5 1.71429 16.5H6.85714V13.0715C6.85714 12.7684 6.97755 12.4777 7.19188 12.2633C7.40621 12.049 7.6969 11.9286 8 11.9286C8.3031 11.9286 8.59379 12.049 8.80812 12.2633C9.02245 12.4777 9.14286 12.7684 9.14286 13.0715V16.5H14.2857C14.5108 16.5 14.7338 16.4557 14.9417 16.3695C15.1497 16.2834 15.3387 16.1571 15.4979 15.9979C15.6571 15.8387 15.7834 15.6498 15.8695 15.4418C15.9557 15.2338 16 15.0109 16 14.7858V8.24404C15.9999 8.08731 15.9677 7.93226 15.9051 7.78854C15.8426 7.64482 15.7512 7.5155 15.6366 7.40861L8.37143 0.63718C8.26792 0.548649 8.1362 0.5 8 0.5C7.8638 0.5 7.73208 0.548649 7.62857 0.63718L0.363429 7.40861Z" fill="black"/>
</svg>
