<svg width="0" height="0" class="hidden">
  <symbol  xmlns="http://www.w3.org/2000/svg" viewBox="0 0 8 14" id="arrow-left">
    <path d="M7 .25a.75.75 0 0 0-.531.219l-6 6a.75.75 0 0 0 0 1.062l6 6a.75.75 0 0 0 1.062 0 .75.75 0 0 0 0-1.062L2.063 7 7.53 1.531a.75.75 0 0 0 0-1.062A.75.75 0 0 0 7 .25Z"></path>
  </symbol>
  <symbol  xmlns="http://www.w3.org/2000/svg" viewBox="0 0 22 26" id="document">
    <path fill-rule="evenodd" clip-rule="evenodd" d="M13.9974 0.333333C13.9974 0.244928 13.9623 0.160143 13.8998 0.0976311C13.8373 0.035119 13.7525 0 13.6641 0H4.33073C3.35827 0 2.42564 0.386309 1.738 1.07394C1.05037 1.76158 0.664062 2.69421 0.664062 3.66667V22.3333C0.664062 23.3058 1.05037 24.2384 1.738 24.9261C2.42564 25.6137 3.35827 26 4.33073 26H17.6641C18.6365 26 19.5692 25.6137 20.2568 24.9261C20.9444 24.2384 21.3307 23.3058 21.3307 22.3333V9.196C21.3307 9.1076 21.2956 9.02281 21.2331 8.9603C21.1706 8.89779 21.0858 8.86267 20.9974 8.86267H14.9974C14.7322 8.86267 14.4778 8.75731 14.2903 8.56977C14.1028 8.38224 13.9974 8.12788 13.9974 7.86267V0.333333ZM14.9974 13.3333C15.2626 13.3333 15.517 13.4387 15.7045 13.6262C15.892 13.8138 15.9974 14.0681 15.9974 14.3333C15.9974 14.5985 15.892 14.8529 15.7045 15.0404C15.517 15.228 15.2626 15.3333 14.9974 15.3333H6.9974C6.73218 15.3333 6.47783 15.228 6.29029 15.0404C6.10275 14.8529 5.9974 14.5985 5.9974 14.3333C5.9974 14.0681 6.10275 13.8138 6.29029 13.6262C6.47783 13.4387 6.73218 13.3333 6.9974 13.3333H14.9974ZM14.9974 18.6667C15.2626 18.6667 15.517 18.772 15.7045 18.9596C15.892 19.1471 15.9974 19.4015 15.9974 19.6667C15.9974 19.9319 15.892 20.1862 15.7045 20.3738C15.517 20.5613 15.2626 20.6667 14.9974 20.6667H6.9974C6.73218 20.6667 6.47783 20.5613 6.29029 20.3738C6.10275 20.1862 5.9974 19.9319 5.9974 19.6667C5.9974 19.4015 6.10275 19.1471 6.29029 18.9596C6.47783 18.772 6.73218 18.6667 6.9974 18.6667H14.9974Z" ></path>
  </symbol>
  <symbol  xmlns="http://www.w3.org/2000/svg" viewBox="0 0 16 17" id="house">
    <path fill-rule="evenodd" clip-rule="evenodd" d="M0.363429 7.40861C0.248804 7.5155 0.157389 7.64482 0.0948682 7.78854C0.032347 7.93226 5.52051e-05 8.08731 0 8.24404L0 14.7858C0 15.0109 0.0443413 15.2338 0.130492 15.4418C0.216643 15.6498 0.342917 15.8387 0.502103 15.9979C0.661289 16.1571 0.85027 16.2834 1.05826 16.3695C1.26624 16.4557 1.48916 16.5 1.71429 16.5H6.85714V13.0715C6.85714 12.7684 6.97755 12.4777 7.19188 12.2633C7.40621 12.049 7.6969 11.9286 8 11.9286C8.3031 11.9286 8.59379 12.049 8.80812 12.2633C9.02245 12.4777 9.14286 12.7684 9.14286 13.0715V16.5H14.2857C14.5108 16.5 14.7338 16.4557 14.9417 16.3695C15.1497 16.2834 15.3387 16.1571 15.4979 15.9979C15.6571 15.8387 15.7834 15.6498 15.8695 15.4418C15.9557 15.2338 16 15.0109 16 14.7858V8.24404C15.9999 8.08731 15.9677 7.93226 15.9051 7.78854C15.8426 7.64482 15.7512 7.5155 15.6366 7.40861L8.37143 0.63718C8.26792 0.548649 8.1362 0.5 8 0.5C7.8638 0.5 7.73208 0.548649 7.62857 0.63718L0.363429 7.40861Z" ></path>
  </symbol>
  <symbol  xmlns="http://www.w3.org/2000/svg" viewBox="0 0 12 12" id="plus">
    <path d="M10.5 6.75H6.75V10.5C6.75 10.6989 6.67098 10.8897 6.53033 11.0303C6.38968 11.171 6.19891 11.25 6 11.25C5.80109 11.25 5.61032 11.171 5.46967 11.0303C5.32902 10.8897 5.25 10.6989 5.25 10.5V6.75H1.5C1.30109 6.75 1.11032 6.67098 0.96967 6.53033C0.829018 6.38968 0.75 6.19891 0.75 6C0.75 5.80109 0.829018 5.61032 0.96967 5.46967C1.11032 5.32902 1.30109 5.25 1.5 5.25H5.25V1.5C5.25 1.30109 5.32902 1.11032 5.46967 0.96967C5.61032 0.829017 5.80109 0.75 6 0.75C6.19891 0.75 6.38968 0.829017 6.53033 0.96967C6.67098 1.11032 6.75 1.30109 6.75 1.5V5.25H10.5C10.6989 5.25 10.8897 5.32902 11.0303 5.46967C11.171 5.61032 11.25 5.80109 11.25 6C11.25 6.19891 11.171 6.38968 11.0303 6.53033C10.8897 6.67098 10.6989 6.75 10.5 6.75Z" ></path>
  </symbol>
  <symbol  xmlns="http://www.w3.org/2000/svg" viewBox="0 0 12 13" id="upload-file">
    <path d="M1.82-.035A1.428 1.428 0 0 0 .393 1.393v10.214a1.428 1.428 0 0 0 1.427 1.43h8.358a1.43 1.43 0 0 0 1.43-1.43V3.715a.5.5 0 0 0-.147-.354L8.21.111a.5.5 0 0 0-.354-.146Zm0 1h5.83l2.957 2.957v7.685a.429.429 0 0 1-.127.303.43.43 0 0 1-.302.127H1.82a.429.429 0 0 1-.427-.43V1.393A.427.427 0 0 1 1.82.965z"></path>
    <path d="M5.646 3.826 3.79 5.684a.5.5 0 0 0 0 .707.5.5 0 0 0 .707 0L6 4.887 7.504 6.39a.5.5 0 0 0 .707 0 .5.5 0 0 0 0-.707L6.354 3.826a.5.5 0 0 0-.708 0z"></path>
    <path d="M6 3.68a.5.5 0 0 0-.5.5v5.107a.5.5 0 0 0 .5.5.5.5 0 0 0 .5-.5V4.18a.5.5 0 0 0-.5-.5z"></path>
  </symbol>
  <symbol  xmlns="http://www.w3.org/2000/svg" viewBox="0 0 25 17" id="camera">
    <path d="M19.1667 6.5V1.83333C19.1667 1.47971 19.0262 1.14057 18.7761 0.890525C18.5261 0.640476 18.187 0.5 17.8333 0.5H1.83333C1.47971 0.5 1.14057 0.640476 0.890524 0.890525C0.640476 1.14057 0.5 1.47971 0.5 1.83333V15.1667C0.5 15.5203 0.640476 15.8594 0.890524 16.1095C1.14057 16.3595 1.47971 16.5 1.83333 16.5H17.8333C18.187 16.5 18.5261 16.3595 18.7761 16.1095C19.0262 15.8594 19.1667 15.5203 19.1667 15.1667V10.5L24.5 15.8333V1.16667L19.1667 6.5Z"></path>
  </symbol>
</svg>