<svg width="12" height="13" fill="none" xmlns="http://www.w3.org/2000/svg">
    <path style="color:#000;fill:gray;stroke-linecap:round;stroke-linejoin:round;-inkscape-stroke:none" d="M1.82-.035A1.428 1.428 0 0 0 .393 1.393v10.214a1.428 1.428 0 0 0 1.427 1.43h8.358a1.43 1.43 0 0 0 1.43-1.43V3.715a.5.5 0 0 0-.147-.354L8.21.111a.5.5 0 0 0-.354-.146Zm0 1h5.83l2.957 2.957v7.685a.429.429 0 0 1-.127.303.43.43 0 0 1-.302.127H1.82a.429.429 0 0 1-.427-.43V1.393A.427.427 0 0 1 1.82.965z"/>
    <path style="color:#000;fill:gray;stroke-linecap:round;stroke-linejoin:round;-inkscape-stroke:none" d="M5.646 3.826 3.79 5.684a.5.5 0 0 0 0 .707.5.5 0 0 0 .707 0L6 4.887 7.504 6.39a.5.5 0 0 0 .707 0 .5.5 0 0 0 0-.707L6.354 3.826a.5.5 0 0 0-.708 0z"/>
    <path style="color:#000;fill:gray;stroke-linecap:round;stroke-linejoin:round;-inkscape-stroke:none" d="M6 3.68a.5.5 0 0 0-.5.5v5.107a.5.5 0 0 0 .5.5.5.5 0 0 0 .5-.5V4.18a.5.5 0 0 0-.5-.5z"/>
</svg>
