<svg width="16" height="17" fill="none" xmlns="http://www.w3.org/2000/svg">
    <path style="color:#000;fill:#fff;fill-opacity:.7;stroke-linecap:round;stroke-linejoin:round;-inkscape-stroke:none" d="M8.668 1.5a1.666 1.666 0 1 0 .002 3.333A1.666 1.666 0 0 0 8.668 1.5Zm0 1.334a.336.336 0 0 1 .334.332.336.336 0 0 1-.334.334.336.336 0 0 1-.334-.334.332.332 0 0 1 .334-.332zm-.502 2.014a1 1 0 0 0-1.15.82l-.668 4a1 1 0 0 0 .279.873l.441.441a1 1 0 0 0-1.2.25l-2 2.668a1 1 0 0 0 .2 1.4 1 1 0 0 0 1.4-.2l2-2.666a1 1 0 0 0 .126-.928l.92.92 1.26 2.521a1 1 0 0 0 1.341.448 1 1 0 0 0 .448-1.342l-1.334-2.666a1 1 0 0 0-.188-.26L8.406 9.49l.582-3.492a1 1 0 0 0-.822-1.15Z"/>
    <path style="color:#000;fill:#fff;fill-opacity:.7;stroke-linecap:round;stroke-linejoin:round;-inkscape-stroke:none" d="M7.758 4.861 5.09 5.53a1 1 0 0 0-.588.414l-1.334 2a1 1 0 0 0 .277 1.387 1 1 0 0 0 1.387-.277l1.12-1.678 1.741-.436 1.6 1.6a1 1 0 0 0 .39.242l2 .666a1 1 0 0 0 1.266-.633 1 1 0 0 0-.633-1.263l-1.775-.594-1.834-1.832a1 1 0 0 0-.95-.264Z"/>
</svg>
