<svg width="22" height="22" viewBox="0 0 22 22" fill="none" xmlns="http://www.w3.org/2000/svg">
<path d="M16.9167 12.3333H12.3333V16.9167C12.3333 17.1598 12.2368 17.3929 12.0648 17.5648C11.8929 17.7368 11.6598 17.8333 11.4167 17.8333C11.1736 17.8333 10.9404 17.7368 10.7685 17.5648C10.5966 17.3929 10.5 17.1598 10.5 16.9167V12.3333H5.91667C5.67355 12.3333 5.44039 12.2368 5.26849 12.0648C5.09658 11.8929 5 11.6598 5 11.4167C5 11.1736 5.09658 10.9404 5.26849 10.7685C5.44039 10.5966 5.67355 10.5 5.91667 10.5H10.5V5.91667C10.5 5.67355 10.5966 5.44039 10.7685 5.26849C10.9404 5.09658 11.1736 5 11.4167 5C11.6598 5 11.8929 5.09658 12.0648 5.26849C12.2368 5.44039 12.3333 5.67355 12.3333 5.91667V10.5H16.9167C17.1598 10.5 17.3929 10.5966 17.5648 10.7685C17.7368 10.9404 17.8333 11.1736 17.8333 11.4167C17.8333 11.6598 17.7368 11.8929 17.5648 12.0648C17.3929 12.2368 17.1598 12.3333 16.9167 12.3333Z" fill="#FF6100"/>
</svg>
