<svg width="190" height="190" viewBox="0 0 190 190" fill="none" xmlns="http://www.w3.org/2000/svg">
<path d="M177.888 101.881L171.427 105.498C171.364 105.542 171.303 105.55 171.245 105.522C171.198 105.495 171.178 105.439 171.183 105.356L171.274 103.973C171.281 103.865 171.335 103.784 171.435 103.73L176.742 100.922L171.849 97.4261C171.757 97.3599 171.714 97.273 171.721 97.1652L171.812 95.7822C171.818 95.6983 171.846 95.64 171.896 95.6073C171.957 95.5873 172.016 95.6032 172.073 95.655L178.004 100.103L184.4 96.663C184.463 96.6191 184.517 96.6106 184.564 96.6377C184.621 96.6776 184.647 96.7394 184.642 96.8232L184.552 98.1883C184.546 98.2841 184.493 98.3588 184.393 98.4123L179.185 101.083L184 104.393C184.092 104.46 184.135 104.541 184.128 104.636L184.039 106.001C184.034 106.073 184.001 106.119 183.94 106.139C183.889 106.172 183.836 106.162 183.779 106.111L177.888 101.881Z" fill="white"/>
<path d="M172.709 114.574C171.662 114.366 170.89 113.845 170.395 113.013C169.909 112.195 169.784 111.191 170.02 110.002C170.257 108.814 170.763 107.929 171.538 107.349C172.312 106.781 173.217 106.6 174.252 106.806L176.795 107.311C177.842 107.519 178.62 108.04 179.127 108.875C179.634 109.71 179.77 110.716 179.536 111.893C179.3 113.082 178.789 113.959 178.004 114.525C177.217 115.102 176.299 115.287 175.251 115.079L172.709 114.574ZM173.961 108.271C173.29 108.138 172.72 108.238 172.25 108.573C171.777 108.92 171.463 109.482 171.309 110.258C171.155 111.035 171.23 111.674 171.534 112.175C171.838 112.676 172.326 112.993 172.997 113.126L175.539 113.631C176.222 113.767 176.799 113.661 177.272 113.315C177.756 112.971 178.076 112.41 178.23 111.633C178.384 110.856 178.303 110.216 177.987 109.713C177.681 109.224 177.186 108.912 176.504 108.776L173.961 108.271Z" fill="white"/>
<path d="M166.808 122.112L167.147 121.105C167.193 120.969 167.278 120.922 167.404 120.964L170.388 121.97C170.353 121.173 170.453 120.428 170.686 119.734C171.043 118.676 171.62 117.94 172.418 117.526C173.213 117.122 174.213 117.124 175.418 117.53L177.687 118.295C177.823 118.341 177.87 118.426 177.828 118.551L177.483 119.575C177.441 119.7 177.352 119.739 177.215 119.693L174.981 118.94C173.412 118.411 172.399 118.823 171.943 120.176C171.701 120.893 171.604 121.633 171.651 122.395L175.83 123.804C175.966 123.85 176.011 123.941 175.965 124.078L175.626 125.084C175.584 125.209 175.495 125.249 175.358 125.203L166.932 122.362C166.807 122.32 166.765 122.237 166.808 122.112Z" fill="white"/>
<path d="M164.938 131.479L171.188 134.516C171.317 134.578 171.353 134.669 171.296 134.788L170.831 135.743C170.769 135.873 170.672 135.906 170.543 135.843L162.593 131.981C160.294 130.864 159.693 129.164 160.788 126.881C161.371 125.683 162.249 124.823 163.424 124.299C163.536 124.261 163.63 124.3 163.707 124.417L164.135 125.225C164.217 125.358 164.191 125.453 164.057 125.508C163.086 125.996 162.396 126.648 161.986 127.463C161.651 128.181 161.588 128.804 161.798 129.333C161.992 129.868 162.499 130.321 163.319 130.693L163.692 130.873C163.736 130.068 163.921 129.331 164.246 128.661C164.708 127.712 165.376 127.036 166.252 126.634C167.138 126.238 168.099 126.291 169.136 126.794L173.831 129.076C173.96 129.139 173.996 129.229 173.939 129.348L173.474 130.303C173.412 130.433 173.315 130.466 173.186 130.403L168.555 128.153C167.854 127.813 167.236 127.766 166.702 128.014C166.163 128.272 165.728 128.741 165.398 129.421C165.052 130.133 164.899 130.82 164.938 131.479Z" fill="white"/>
<path d="M151.445 147.236L152.242 146.236C152.316 146.142 152.402 146.103 152.497 146.117L157.504 146.447L157.24 144.902L154.987 143.107C154.884 143.025 154.877 142.927 154.967 142.815L155.606 142.012C155.688 141.909 155.781 141.899 155.884 141.981L158.137 143.775L159.703 143.688L158.262 138.881C158.241 138.772 158.26 138.68 158.32 138.605L159.117 137.606C159.236 137.455 159.328 137.475 159.392 137.664L161.097 143.555L166.075 143.402C166.152 143.402 166.205 143.421 166.235 143.46C166.267 143.517 166.257 143.578 166.205 143.643L165.397 144.657C165.33 144.741 165.24 144.777 165.128 144.764L159.517 144.874L162.839 147.521C162.952 147.611 162.967 147.707 162.885 147.811L162.246 148.613C162.156 148.726 162.055 148.737 161.942 148.648L158.62 146.001L159.767 151.494C159.804 151.601 159.79 151.696 159.722 151.781L158.926 152.781C158.874 152.846 158.817 152.87 158.755 152.851C158.695 152.849 158.66 152.806 158.65 152.722L157.698 147.821L151.564 147.491C151.365 147.471 151.326 147.386 151.445 147.236Z" fill="white"/>
<path d="M148.286 150.189L149.225 149.323C149.322 149.233 149.415 149.237 149.505 149.334L155.536 155.868C155.634 155.973 155.634 156.071 155.537 156.161L154.757 156.881C154.66 156.971 154.563 156.962 154.465 156.857L151.217 153.338C151.079 153.188 150.835 152.915 150.486 152.519C150.136 152.14 149.887 151.871 149.741 151.713C150.07 153.042 150.292 154.061 150.408 154.771L151.234 159.937C151.255 160.049 151.225 160.141 151.146 160.214L150.22 161.069C150.123 161.158 150.026 161.15 149.928 161.044L143.897 154.51C143.807 154.413 143.811 154.32 143.908 154.231L144.675 153.523C144.781 153.425 144.879 153.425 144.968 153.522L148.118 156.934C148.55 157.401 149.05 157.961 149.618 158.612L149.631 158.599C149.373 157.613 149.162 156.623 148.998 155.632L148.186 150.453C148.165 150.359 148.198 150.271 148.286 150.189Z" fill="white"/>
<path d="M138.943 157.883L139.819 157.25C139.926 157.173 140.018 157.188 140.095 157.295L144.646 163.6L146.923 161.957C147.04 161.872 147.14 161.889 147.225 162.005L147.751 162.735C147.836 162.852 147.819 162.952 147.703 163.037L141.967 167.177C141.85 167.261 141.75 167.245 141.665 167.128L141.138 166.399C141.054 166.282 141.07 166.181 141.187 166.097L143.449 164.464L138.898 158.159C138.821 158.052 138.836 157.96 138.943 157.883Z" fill="white"/>
<path d="M132.544 161.908L135.646 160.152C135.76 160.087 135.85 160.112 135.915 160.227L140.296 167.965C140.367 168.09 140.345 168.185 140.23 168.25L139.306 168.774C139.181 168.845 139.083 168.817 139.012 168.692L137.584 166.17L135.595 167.297C134.634 167.84 133.738 168.024 132.907 167.846C132.065 167.675 131.405 167.166 130.926 166.32C130.417 165.422 130.31 164.6 130.605 163.854C130.906 163.118 131.552 162.47 132.544 161.908ZM136.963 165.074L135.154 161.878L133.369 162.889C132.021 163.652 131.646 164.561 132.244 165.615C132.535 166.154 132.929 166.461 133.428 166.538C133.916 166.62 134.499 166.469 135.178 166.085L136.963 165.074Z" fill="white"/>
<path d="M118.497 175.265C118.221 174.447 118.41 173.712 119.064 173.061C117.956 173.042 117.228 172.515 116.879 171.48C116.611 170.684 116.718 169.913 117.201 169.168C117.685 168.422 118.438 167.877 119.461 167.532C120.837 167.069 122.147 167.102 123.389 167.633C123.503 167.67 123.538 167.754 123.493 167.883L123.188 168.726C123.128 168.848 123.033 168.886 122.904 168.841C121.867 168.469 120.876 168.442 119.932 168.76C119.273 168.983 118.796 169.295 118.501 169.699C118.206 170.102 118.141 170.548 118.306 171.037C118.621 171.969 119.415 172.221 120.688 171.792L122.394 171.217C122.53 171.171 122.621 171.216 122.667 171.352L122.897 172.035C122.943 172.171 122.898 172.262 122.762 172.308L121.073 172.877C120.573 173.046 120.215 173.3 120 173.638C119.785 173.977 119.746 174.351 119.884 174.76C120.034 175.203 120.317 175.481 120.735 175.594C121.153 175.706 121.652 175.665 122.232 175.469C123.141 175.163 123.855 174.612 124.372 173.817C124.44 173.68 124.535 173.661 124.656 173.759L125.387 174.235C125.505 174.322 125.531 174.42 125.467 174.53C124.803 175.565 123.857 176.289 122.629 176.703C121.662 177.029 120.795 177.049 120.028 176.763C119.252 176.492 118.742 175.993 118.497 175.265Z" fill="white"/>
<path d="M112.562 167.233L113.549 167.033C113.679 167.007 113.758 167.064 113.786 167.205L114.455 170.504C114.481 170.634 114.43 170.711 114.3 170.738L113.912 170.816C113.55 171.147 113.363 171.852 113.349 172.932C113.326 174.027 113.505 175.968 113.886 178.755C113.915 178.897 113.865 178.98 113.735 179.006L108.108 180.147C107.966 180.175 107.882 180.119 107.853 179.978L106.309 172.357L105.391 172.543C105.25 172.571 105.166 172.521 105.14 172.392L104.472 169.093C104.443 168.952 104.499 168.867 104.641 168.838L105.611 168.642C105.752 168.613 105.837 168.669 105.865 168.81L106.312 171.016L112.857 169.689L112.41 167.484C112.382 167.343 112.432 167.259 112.562 167.233ZM112.324 177.933C112.046 176.018 111.907 174.516 111.907 173.427C111.897 172.351 112.03 171.589 112.307 171.142L107.755 172.064L109.078 178.591L112.324 177.933Z" fill="white"/>
<path d="M97.4577 177.711L97.3286 175.952C97.318 175.808 97.3786 175.731 97.5102 175.722L103.38 175.291L103.325 174.537C103.277 173.879 103.024 173.386 102.567 173.058C102.11 172.731 101.534 172.593 100.84 172.644C99.8584 172.716 98.9675 173.118 98.167 173.851C98.0525 173.931 97.9555 173.92 97.8758 173.818L97.3051 173.174C97.2143 173.084 97.2192 172.988 97.3199 172.884C98.2859 171.947 99.439 171.429 100.779 171.331C101.821 171.254 102.734 171.482 103.519 172.014C104.305 172.558 104.737 173.362 104.815 174.427L105.015 177.156C105.101 178.317 104.801 179.229 104.115 179.893C103.418 180.558 102.537 180.93 101.472 181.008C100.419 181.085 99.5107 180.845 98.7479 180.287C97.973 179.731 97.543 178.872 97.4577 177.711ZM98.8939 177.606C98.9475 178.336 99.2038 178.876 99.6627 179.228C100.11 179.58 100.68 179.73 101.374 179.679C102.08 179.628 102.629 179.395 103.02 178.981C103.411 178.579 103.58 178.007 103.525 177.265L103.47 176.511L98.8385 176.852L98.8939 177.606Z" fill="white"/>
<path d="M87.0717 172.307C88.0534 171.659 89.1316 171.365 90.3061 171.424C91.4806 171.483 92.3995 171.847 93.0627 172.517C93.7253 173.199 94.0308 174.056 93.979 175.086L93.8418 177.819C93.7901 178.85 93.4004 179.671 92.6728 180.283C91.9452 180.896 91.0001 181.173 89.8376 181.114C88.7949 181.062 87.8332 180.713 86.9524 180.068C86.8368 179.978 86.8239 179.876 86.9138 179.76L87.4182 179.046C87.5075 178.943 87.6043 178.93 87.7086 179.007C88.3694 179.485 89.0894 179.743 89.8684 179.782C90.6235 179.82 91.2206 179.652 91.66 179.277C92.0993 178.903 92.3352 178.392 92.3677 177.745L92.5049 175.012C92.538 174.353 92.3547 173.815 91.9551 173.399C91.5549 172.994 90.9833 172.773 90.2402 172.736C89.4132 172.694 88.597 172.918 87.7915 173.406C87.6788 173.496 87.5836 173.48 87.5057 173.356L87.0213 172.592C86.9435 172.468 86.9603 172.373 87.0717 172.307Z" fill="white"/>
<path d="M81.7472 170.629L85.2602 171.23C85.3903 171.252 85.4442 171.328 85.422 171.458L83.9233 180.223C83.8991 180.365 83.8219 180.425 83.6918 180.403L82.645 180.224C82.503 180.2 82.4442 180.116 82.4685 179.975L82.9569 177.118L80.7036 176.733C79.6154 176.547 78.8053 176.122 78.2735 175.459C77.7298 174.794 77.5399 173.982 77.7037 173.024C77.8776 172.007 78.3146 171.302 79.0146 170.911C79.7126 170.531 80.6235 170.437 81.7472 170.629ZM83.1692 175.876L83.7881 172.257L81.7655 171.911C80.2396 171.65 79.3745 172.117 79.1703 173.311C79.0553 173.913 79.1667 174.4 79.5044 174.775C79.8304 175.147 80.3777 175.399 81.1466 175.53L83.1692 175.876Z" fill="white"/>
<path d="M66.137 171.108C66.5512 170.912 66.9956 170.899 67.4701 171.069C67.9446 171.239 68.2854 171.534 68.4924 171.952C68.6842 172.377 68.693 172.833 68.519 173.319C68.345 173.805 68.0509 174.145 67.6366 174.341C67.211 174.533 66.761 174.544 66.2865 174.374C65.812 174.204 65.4769 173.912 65.2811 173.498C65.0741 173.079 65.0575 172.627 65.2315 172.141C65.4055 171.656 65.7073 171.311 66.137 171.108Z" fill="white"/>
<path d="M51.8692 166.265L51.5017 158.87C51.4904 158.794 51.5101 158.736 51.561 158.696C51.6059 158.667 51.6646 158.673 51.7373 158.715L52.9358 159.411C53.0291 159.466 53.0777 159.549 53.0813 159.662L53.2376 165.665L58.5446 162.836C58.6447 162.783 58.7414 162.784 58.8348 162.838L60.0333 163.534C60.1059 163.576 60.1458 163.627 60.1528 163.687C60.1434 163.751 60.1029 163.796 60.0313 163.824L53.4101 167.16L53.649 174.418C53.6604 174.494 53.6436 174.546 53.5988 174.576C53.5375 174.61 53.4705 174.605 53.3979 174.563L52.215 173.876C52.132 173.828 52.0886 173.747 52.085 173.634L52.008 167.782L46.9019 170.624C46.8018 170.676 46.7102 170.679 46.6272 170.631L45.4443 169.943C45.382 169.907 45.3556 169.857 45.365 169.793C45.358 169.734 45.3903 169.69 45.4619 169.662L51.8692 166.265Z" fill="white"/>
<path d="M42.6962 155.887C43.3494 155.042 44.1589 154.583 45.1249 154.511C46.074 154.44 47.028 154.776 47.9869 155.517C48.9458 156.259 49.5119 157.106 49.6852 158.059C49.8491 159.004 49.608 159.895 48.9622 160.73L47.3769 162.781C46.7237 163.626 45.9105 164.089 44.9372 164.171C43.9639 164.253 43.0025 163.927 42.0531 163.193C41.0942 162.452 40.5366 161.604 40.3801 160.648C40.2141 159.686 40.4577 158.782 41.1109 157.937L42.6962 155.887ZM47.7802 159.817C48.1985 159.276 48.3626 158.72 48.2725 158.15C48.173 157.572 47.8099 157.041 47.1833 156.557C46.5567 156.072 45.9514 155.855 45.3674 155.904C44.7834 155.953 44.2823 156.248 43.8639 156.789L42.2786 158.84C41.853 159.391 41.6899 159.955 41.7895 160.532C41.8818 161.119 42.2412 161.655 42.8678 162.139C43.4944 162.624 44.1034 162.837 44.6947 162.778C45.2692 162.722 45.7692 162.418 46.1949 161.867L47.7802 159.817Z" fill="white"/>
<path d="M38.638 147.303L39.3889 148.054C39.4907 148.156 39.495 148.254 39.4016 148.347L37.1743 150.574C37.904 150.897 38.5277 151.317 39.0453 151.834C39.8344 152.623 40.2374 153.468 40.2544 154.367C40.2629 155.258 39.8174 156.153 38.918 157.053L37.2252 158.746C37.1233 158.847 37.0258 158.852 36.9324 158.758L36.1688 157.995C36.0754 157.901 36.0797 157.804 36.1815 157.702L37.8488 156.035C39.0198 154.864 39.1004 153.773 38.0907 152.763C37.5561 152.229 36.9367 151.813 36.2324 151.516L33.114 154.634C33.0122 154.736 32.9104 154.736 32.8086 154.634L32.0576 153.884C31.9643 153.79 31.9685 153.693 32.0704 153.591L38.358 147.303C38.4513 147.21 38.5446 147.21 38.638 147.303Z" fill="white"/>
<path d="M31.1227 141.541L25.6412 145.811C25.5276 145.899 25.4302 145.891 25.3491 145.787L24.6965 144.949C24.608 144.836 24.6206 144.735 24.7342 144.646L31.7068 139.215C33.7233 137.645 35.5142 137.855 37.0795 139.845C37.898 140.896 38.283 142.064 38.2344 143.349C38.2197 143.467 38.143 143.534 38.004 143.551L37.09 143.578C36.9342 143.593 36.861 143.529 36.8704 143.384C36.8602 142.297 36.5796 141.39 36.0287 140.663C35.5325 140.046 35.0008 139.715 34.4335 139.67C33.8683 139.608 33.238 139.863 32.5427 140.435L32.2161 140.69C32.9194 141.085 33.4997 141.576 33.9569 142.163C34.6058 142.996 34.9174 143.894 34.8917 144.857C34.8566 145.828 34.3846 146.667 33.4758 147.375L29.3576 150.582C29.244 150.671 29.1466 150.663 29.0655 150.559L28.4129 149.721C28.3244 149.607 28.337 149.506 28.4506 149.418L32.512 146.254C33.1274 145.775 33.4417 145.241 33.455 144.653C33.4609 144.055 33.2316 143.458 32.767 142.862C32.2803 142.237 31.7322 141.797 31.1227 141.541Z" fill="white"/>
<path d="M22.9663 122.524L23.5119 123.679C23.5632 123.788 23.5611 123.882 23.5056 123.961L21.0002 128.309L22.5039 128.753L25.1082 127.524C25.2276 127.467 25.318 127.504 25.3795 127.634L25.8175 128.562C25.8739 128.682 25.8424 128.769 25.723 128.826L23.1187 130.055L22.5065 131.499L27.4558 132.327C27.5625 132.356 27.6364 132.414 27.6774 132.501L28.223 133.657C28.305 133.831 28.247 133.904 28.0489 133.878L22.01 132.808L19.9512 137.344C19.9174 137.413 19.8763 137.452 19.8278 137.462C19.7633 137.465 19.7131 137.429 19.6772 137.353L19.1239 136.182C19.0778 136.084 19.0853 135.987 19.1465 135.892L21.5236 130.809L17.6822 132.622C17.552 132.684 17.4587 132.655 17.4024 132.536L16.9643 131.608C16.9028 131.478 16.9372 131.382 17.0674 131.32L20.9088 129.506L15.4729 128.112C15.3605 128.099 15.2812 128.043 15.2351 127.945L14.6895 126.79C14.6536 126.714 14.6577 126.652 14.7017 126.605C14.7297 126.552 14.7837 126.54 14.8636 126.568L19.6813 127.877L22.6846 122.517C22.7904 122.348 22.8843 122.35 22.9663 122.524Z" fill="white"/>
<path d="M21.74 118.454L22.1022 119.679C22.1397 119.806 22.0951 119.888 21.9685 119.925L13.4411 122.445C13.303 122.486 13.2153 122.443 13.1779 122.317L12.8768 121.298C12.8394 121.172 12.8898 121.088 13.0279 121.047L17.6195 119.69C17.8152 119.632 18.1679 119.534 18.6776 119.396C19.1724 119.25 19.5234 119.146 19.7306 119.085C18.3927 118.792 17.38 118.541 16.6923 118.331L11.6936 116.787C11.5845 116.756 11.5147 116.689 11.4841 116.586L11.1269 115.377C11.0895 115.251 11.1399 115.167 11.278 115.126L19.8053 112.606C19.9319 112.569 20.0139 112.613 20.0513 112.74L20.3472 113.741C20.3881 113.879 20.3452 113.967 20.2186 114.004L15.765 115.321C15.1551 115.501 14.4325 115.702 13.5971 115.924L13.6022 115.941C14.6013 116.146 15.5819 116.395 16.5439 116.686L21.5478 118.248C21.6419 118.27 21.706 118.338 21.74 118.454Z" fill="white"/>
<path d="M18.9771 106.642L19.1551 107.707C19.1768 107.838 19.1226 107.914 18.9924 107.935L11.3227 109.217L11.7853 111.986C11.8091 112.128 11.7499 112.211 11.6079 112.235L10.7202 112.383C10.5781 112.407 10.4953 112.348 10.4715 112.206L9.30601 105.228C9.28229 105.086 9.34144 105.003 9.48347 104.98L10.3712 104.831C10.5132 104.808 10.5961 104.867 10.6198 105.009L11.0795 107.761L18.7492 106.48C18.8794 106.458 18.9554 106.512 18.9771 106.642Z" fill="white"/>
<path d="M18.2189 99.2107L18.4114 102.77C18.4185 102.901 18.3562 102.971 18.2244 102.978L9.34533 103.458C9.20154 103.466 9.12608 103.404 9.11895 103.272L9.06161 102.212C9.05383 102.068 9.12184 101.992 9.26563 101.984L12.1594 101.828L12.036 99.5451C11.9764 98.4427 12.211 97.5587 12.7398 96.8932C13.268 96.2157 14.0174 95.8507 14.988 95.7982C16.0185 95.7425 16.8022 96.0126 17.3391 96.6085C17.8641 97.205 18.1574 98.0724 18.2189 99.2107ZM13.4176 101.76L17.0842 101.561L16.9734 99.5124C16.8898 97.9667 16.2429 97.2265 15.0327 97.292C14.4209 97.313 13.97 97.5297 13.6798 97.942C13.389 98.3423 13.2647 98.9318 13.3068 99.7107L13.4176 101.76Z" fill="white"/>
<path d="M12.4681 80.4421C13.3242 80.5583 13.8988 81.054 14.1918 81.9294C14.7008 80.9449 15.4963 80.526 16.5784 80.6728C17.4108 80.7857 18.0537 81.2241 18.5071 81.988C18.9605 82.7519 19.1146 83.6689 18.9694 84.7391C18.7743 86.178 18.163 87.3363 17.1357 88.2142C17.0514 88.2996 16.9614 88.2935 16.8657 88.1957L16.2451 87.5484C16.1628 87.4404 16.1706 87.3385 16.2684 87.2428C17.0623 86.4785 17.5262 85.603 17.6601 84.616C17.7537 83.9263 17.6852 83.36 17.4547 82.917C17.2241 82.4739 16.8532 82.2178 16.3419 82.1484C15.3668 82.0161 14.7889 82.6159 14.6083 83.9477L14.3663 85.7313C14.3469 85.874 14.2659 85.9357 14.1232 85.9163L13.4097 85.8195C13.2671 85.8002 13.2054 85.7192 13.2247 85.5765L13.4643 83.8106C13.5353 83.2874 13.4669 82.8543 13.2591 82.5113C13.0513 82.1682 12.7334 81.9677 12.3053 81.9096C11.8416 81.8467 11.4666 81.9775 11.1804 82.3019C10.8942 82.6264 10.7099 83.0918 10.6277 83.6983C10.4986 84.6496 10.6754 85.5334 11.158 86.3497C11.2505 86.4712 11.2257 86.5647 11.0837 86.6302L10.3333 87.0734C10.2031 87.1405 10.1028 87.1208 10.0325 87.0144C9.40049 85.9599 9.17161 84.7905 9.34583 83.5062C9.48295 82.4955 9.84992 81.7097 10.4467 81.1488C11.0333 80.5745 11.7071 80.3389 12.4681 80.4421Z" fill="white"/>
<path d="M22.3234 78.4838L22.0597 79.4567C22.0252 79.5841 21.9385 79.629 21.7995 79.5913L18.5506 78.7109C18.4232 78.6764 18.3768 78.5954 18.4113 78.468L18.5149 78.0858C18.3815 77.6145 17.835 77.1307 16.8754 76.6345C15.9074 76.1235 14.0918 75.4139 11.4286 74.5057C11.2896 74.468 11.2374 74.3855 11.2719 74.2581L12.7738 68.716C12.8115 68.577 12.8998 68.5263 13.0388 68.564L20.5441 70.5979L20.7889 69.6945C20.8266 69.5555 20.9091 69.5033 21.0365 69.5378L24.2853 70.4182C24.4243 70.4559 24.475 70.5442 24.4373 70.6832L24.1784 71.6387C24.1407 71.7777 24.0524 71.8284 23.9134 71.7907L21.7417 71.2022L19.995 77.6477L22.1667 78.2362C22.3057 78.2739 22.3579 78.3564 22.3234 78.4838ZM12.8636 73.4772C14.7001 74.0868 16.1055 74.6355 17.0798 75.1233C18.0457 75.5964 18.6669 76.0569 18.9433 76.5048L20.158 72.0225L13.7299 70.2805L12.8636 73.4772Z" fill="white"/>
<path d="M19.7203 60.2418L21.35 60.9168C21.4831 60.9719 21.5243 61.0604 21.4738 61.1824L19.2215 66.6204L19.92 66.9097C20.5297 67.1622 21.0836 67.1578 21.5815 66.8965C22.0794 66.6351 22.4615 66.1829 22.7278 65.5399C23.1044 64.6308 23.1452 63.6541 22.8504 62.6098C22.8298 62.4713 22.8832 62.3895 23.0105 62.3643L23.8422 62.1438C23.963 62.1029 24.0471 62.1508 24.0945 62.2873C24.4978 63.5713 24.4423 64.8342 23.928 66.0759C23.5285 67.0405 22.9148 67.7539 22.0869 68.2163C21.2478 68.6741 20.335 68.6986 19.3483 68.29L16.8205 67.243C15.7451 66.7976 15.0647 66.1196 14.7794 65.2092C14.4987 64.2876 14.5627 63.3335 14.9714 62.3468C15.3754 61.3711 15.998 60.6678 16.8389 60.2368C17.6844 59.7947 18.6449 59.7964 19.7203 60.2418ZM19.1693 61.5722C18.493 61.2921 17.8948 61.2781 17.3747 61.5303C16.8592 61.7714 16.4683 62.2134 16.202 62.8565C15.9311 63.5106 15.8926 64.1051 16.0867 64.6401C16.2696 65.1705 16.7048 65.578 17.3922 65.8627L18.0907 66.152L19.8677 61.8615L19.1693 61.5722Z" fill="white"/>
<path d="M28.9315 53.8107C29.0745 54.9781 28.8581 56.0745 28.2825 57.1C27.7069 58.1255 26.9714 58.786 26.0762 59.0817C25.1704 59.3714 24.2676 59.2637 23.3677 58.7586L20.9818 57.4194C20.0819 56.9143 19.5197 56.1997 19.2953 55.2756C19.0709 54.3515 19.2436 53.3819 19.8133 52.3669C20.3243 51.4565 21.0646 50.7505 22.0342 50.2489C22.1662 50.1854 22.264 50.2196 22.3275 50.3516L22.742 51.1209C22.795 51.247 22.7638 51.3395 22.6481 51.3985C21.9261 51.7776 21.3743 52.3073 20.9925 52.9875C20.6224 53.6467 20.5073 54.2564 20.647 54.8165C20.7868 55.3765 21.1392 55.8152 21.7043 56.1323L24.0901 57.4715C24.6657 57.7945 25.2289 57.8699 25.7798 57.6974C26.3202 57.5191 26.7725 57.1056 27.1367 56.4568C27.5419 55.7348 27.7053 54.9045 27.6266 53.9658C27.5958 53.8247 27.6532 53.7468 27.799 53.7323L28.698 53.6383C28.8438 53.6238 28.9216 53.6813 28.9315 53.8107Z" fill="white"/>
<path d="M32.8601 49.6622L30.753 52.5367C30.675 52.6432 30.5827 52.6574 30.4763 52.5793L23.3046 47.3224C23.1885 47.2373 23.1695 47.1415 23.2475 47.035L23.8753 46.1785C23.9605 46.0623 24.0611 46.0468 24.1773 46.132L26.5146 47.8453L27.866 46.0015C28.5187 45.1111 29.2605 44.5762 30.0914 44.3967C30.9294 44.2075 31.7403 44.4002 32.5243 44.9748C33.3566 45.585 33.7916 46.2906 33.8291 47.0919C33.8571 47.886 33.534 48.7428 32.8601 49.6622ZM27.5308 48.5902L30.4923 50.761L31.7055 49.1061C32.6207 47.8576 32.5895 46.875 31.612 46.1585C31.1255 45.787 30.6394 45.6687 30.1536 45.8037C29.675 45.9289 29.2051 46.3061 28.7439 46.9352L27.5308 48.5902Z" fill="white"/>
<path d="M39.2322 35.5913C39.2238 36.0495 39.0383 36.4535 38.6755 36.8033C38.3127 37.1532 37.8979 37.3281 37.4311 37.3281C36.9647 37.3111 36.5524 37.1169 36.1942 36.7455C35.836 36.3741 35.6611 35.9593 35.6694 35.5012C35.6864 35.0347 35.8762 34.6265 36.239 34.2767C36.6018 33.9268 37.0123 33.7561 37.4704 33.7644C37.9372 33.7644 38.3497 33.9501 38.7078 34.3216C39.066 34.693 39.2408 35.1163 39.2322 35.5913Z" fill="white"/>
<path d="M49.746 24.9752L56.5475 27.9012C56.6207 27.9245 56.664 27.9677 56.6773 28.031C56.684 28.0842 56.6524 28.1341 56.5826 28.1808L55.4299 28.9504C55.34 29.0103 55.2435 29.017 55.1403 28.9705L49.6821 26.468L49.8857 32.4786C49.8891 32.5917 49.8459 32.6783 49.7561 32.7383L48.6034 33.5078C48.5335 33.5545 48.4703 33.5678 48.4137 33.5479C48.3604 33.5113 48.3371 33.4547 48.3437 33.3782L48.264 25.9647L41.6422 22.9836C41.569 22.9604 41.529 22.9221 41.5223 22.8689C41.5189 22.799 41.5522 22.7407 41.622 22.6941L42.7598 21.9345C42.8396 21.8812 42.9312 21.8778 43.0344 21.9243L48.3229 24.432L48.0195 18.5962C48.0161 18.483 48.0543 18.3998 48.1341 18.3465L49.2719 17.5869C49.3318 17.547 49.3883 17.5453 49.4416 17.5818C49.4982 17.6018 49.5232 17.65 49.5166 17.7266L49.746 24.9752Z" fill="white"/>
<path d="M63.0041 21.3352C63.4744 22.2941 63.529 23.2229 63.1679 24.1218C62.8123 25.0046 62.0904 25.7128 61.0022 26.2465C59.914 26.7802 58.9041 26.9147 57.9723 26.6499C57.0513 26.3799 56.3583 25.7708 55.8933 24.8227L54.7519 22.4955C54.2816 21.5367 54.2244 20.6024 54.5802 19.6928C54.936 18.7832 55.6526 18.0642 56.73 17.5358C57.8182 17.0021 58.8254 16.8756 59.7517 17.1564C60.6887 17.4319 61.3924 18.0491 61.8627 19.008L63.0041 21.3352ZM57.2346 24.1648C57.5358 24.779 57.9622 25.1713 58.5136 25.3419C59.0759 25.5072 59.7125 25.4155 60.4236 25.0668C61.1347 24.718 61.597 24.2707 61.8105 23.725C62.0239 23.1792 61.9801 22.5993 61.6789 21.9851L60.5375 19.658C60.231 19.0331 59.7967 18.638 59.2344 18.4727C58.6669 18.2966 58.0276 18.3829 57.3165 18.7317C56.6055 19.0804 56.1458 19.5331 55.9376 20.0896C55.7349 20.6301 55.7868 21.2128 56.0933 21.8377L57.2346 24.1648Z" fill="white"/>
<path d="M72.9274 21.2927L71.921 21.632C71.7846 21.6779 71.6952 21.6384 71.6531 21.5133L70.6469 18.5283C70.0339 19.0389 69.3805 19.4111 68.6869 19.6449C67.6293 20.0014 66.6939 19.9875 65.8805 19.6032C65.0785 19.215 64.4743 18.4183 64.068 17.2129L63.3033 14.9443C63.2573 14.8079 63.2969 14.7186 63.4219 14.6764L64.4454 14.3314C64.5705 14.2892 64.656 14.3364 64.702 14.4728L65.4552 16.7073C65.9842 18.2766 66.9253 18.8331 68.2784 18.377C68.9948 18.1355 69.6425 17.7652 70.2214 17.2661L68.8127 13.0872C68.7667 12.9507 68.812 12.8595 68.9484 12.8135L69.9548 12.4743C70.0799 12.4321 70.1654 12.4792 70.2114 12.6157L73.0518 21.0418C73.0939 21.1669 73.0525 21.2506 72.9274 21.2927Z" fill="white"/>
<path d="M81.1544 17.1778L79.7745 10.3682C79.7459 10.2271 79.7963 10.1434 79.9257 10.1172L80.9665 9.9063C81.1076 9.8777 81.1925 9.93397 81.2211 10.0751L82.9764 18.737C83.484 21.2421 82.4982 22.752 80.0191 23.2666C78.7136 23.5312 77.4964 23.3554 76.3676 22.7393C76.2686 22.6737 76.2424 22.5749 76.2892 22.443L76.6718 21.6124C76.728 21.4664 76.8185 21.4297 76.9434 21.5023C77.9213 21.9776 78.8583 22.1305 79.7545 21.9611C80.5284 21.7921 81.0617 21.4636 81.3547 20.9757C81.6618 20.4972 81.7142 19.8193 81.5119 18.942L81.4297 18.5362C80.7625 18.9898 80.0643 19.2904 79.3351 19.4382C78.3001 19.6479 77.3573 19.5268 76.5066 19.0747C75.6534 18.6109 75.1125 17.8145 74.8837 16.6854L73.847 11.5694C73.8184 11.4283 73.8688 11.3446 73.9981 11.3184L75.039 11.1075C75.1801 11.0789 75.265 11.1351 75.2936 11.2763L76.316 16.3217C76.4709 17.0862 76.8088 17.6054 77.3296 17.8794C77.8621 18.1511 78.4989 18.2118 79.2398 18.0617C80.016 17.9044 80.6542 17.6098 81.1544 17.1778Z" fill="white"/>
<path d="M102.224 18.2997L100.946 18.2701C100.826 18.2674 100.743 18.2234 100.697 18.1383L97.9312 13.9512L96.8604 15.0967L96.7937 17.9759C96.7906 18.1079 96.7171 18.1722 96.5731 18.1688L95.5474 18.1451C95.4154 18.142 95.351 18.0745 95.354 17.9426L95.4207 15.0633L94.4041 13.8695L91.4474 17.9241C91.3735 18.0064 91.2886 18.0464 91.1926 18.0442L89.9149 18.0146C89.723 18.0102 89.6829 17.9252 89.7948 17.7598L93.4557 12.8392L90.3225 8.96763C90.2759 8.90654 90.2592 8.85213 90.2723 8.80443C90.2977 8.745 90.3524 8.71626 90.4363 8.7182L91.732 8.74821C91.84 8.75071 91.9228 8.80065 91.9806 8.89801L95.4616 13.2998L95.56 9.05294C95.5633 8.90898 95.6309 8.83852 95.7629 8.84158L96.7886 8.86534C96.9326 8.86867 97.0029 8.94232 96.9996 9.08628L96.9012 13.3331L100.582 9.09725C100.644 9.00267 100.73 8.95663 100.838 8.95913L102.115 8.98872C102.199 8.99067 102.252 9.02191 102.275 9.08245C102.31 9.13127 102.297 9.18498 102.235 9.24357L98.9083 12.9655L102.355 18.0507C102.46 18.2212 102.416 18.3042 102.224 18.2997Z" fill="white"/>
<path d="M106.656 19.0259L105.398 18.8009C105.268 18.7777 105.215 18.7011 105.238 18.5711L106.804 9.81806C106.829 9.67631 106.907 9.61706 107.037 9.6403L108.082 9.82729C108.212 9.85054 108.265 9.93303 108.239 10.0748L107.396 14.788C107.36 14.9888 107.29 15.348 107.185 15.8657C107.094 16.3736 107.03 16.7339 106.992 16.9465C107.853 15.8815 108.531 15.0885 109.026 14.5676L112.646 10.7899C112.722 10.706 112.813 10.6735 112.92 10.6925L114.16 10.9144C114.29 10.9376 114.342 11.0201 114.317 11.1619L112.751 19.915C112.728 20.0449 112.651 20.0982 112.521 20.075L111.494 19.8912C111.352 19.8658 111.293 19.7882 111.316 19.6582L112.134 15.0868C112.246 14.4607 112.389 13.7246 112.565 12.8783L112.547 12.8751C111.916 13.6765 111.255 14.4421 110.564 15.1718L106.927 18.9463C106.865 19.0205 106.775 19.0471 106.656 19.0259Z" fill="white"/>
<path d="M118.019 21.6898L116.985 21.3759C116.859 21.3375 116.815 21.2552 116.854 21.1289L119.114 13.6887L116.427 12.8724C116.289 12.8306 116.241 12.7408 116.283 12.603L116.545 11.7418C116.587 11.6041 116.676 11.5561 116.814 11.598L123.583 13.6542C123.721 13.6961 123.769 13.7859 123.727 13.9237L123.465 14.7848C123.423 14.9226 123.333 14.9705 123.196 14.9287L120.526 14.1177L118.266 21.5579C118.227 21.6842 118.145 21.7282 118.019 21.6898Z" fill="white"/>
<path d="M125.455 24.4715L122.189 23.0465C122.068 22.9937 122.034 22.9068 122.086 22.7858L125.642 14.6356C125.699 14.5036 125.789 14.464 125.91 14.5168L126.883 14.9414C127.015 14.999 127.052 15.0937 126.995 15.2257L125.836 17.882L127.931 18.796C128.943 19.2375 129.628 19.8438 129.985 20.615C130.354 21.3911 130.344 22.2246 129.955 23.1155C129.542 24.0614 128.949 24.6406 128.176 24.8531C127.407 25.0545 126.5 24.9273 125.455 24.4715ZM125.332 19.0369L123.864 22.4026L125.745 23.2231C127.164 23.842 128.115 23.596 128.6 22.4851C128.856 21.929 128.864 21.4288 128.626 20.9844C128.399 20.5449 127.928 20.1692 127.213 19.8574L125.332 19.0369Z" fill="white"/>
<path d="M144.276 27.3942C143.791 28.1092 143.092 28.4032 142.178 28.2761C142.833 29.1699 142.854 30.0688 142.241 30.9725C141.769 31.6677 141.091 32.0483 140.205 32.1145C139.319 32.1806 138.429 31.9106 137.535 31.3044C136.334 30.4893 135.568 29.4265 135.239 28.1158C135.2 28.0024 135.246 27.9245 135.376 27.8823L136.232 27.6145C136.365 27.589 136.453 27.6413 136.495 27.7714C136.826 28.8225 137.404 29.6275 138.228 30.1866C138.804 30.5773 139.342 30.768 139.841 30.7586C140.341 30.7493 140.735 30.5311 141.025 30.1041C141.577 29.2897 141.297 28.5053 140.185 27.7509L138.695 26.7405C138.576 26.6597 138.557 26.5597 138.638 26.4405L139.042 25.8447C139.123 25.7255 139.223 25.7063 139.342 25.7872L140.817 26.7874C141.253 27.0838 141.672 27.2153 142.071 27.1819C142.471 27.1484 142.792 26.953 143.035 26.5954C143.297 26.2081 143.347 25.8141 143.184 25.4134C143.021 25.0127 142.686 24.6406 142.179 24.2971C141.385 23.7582 140.515 23.5233 139.569 23.5923C139.419 23.621 139.346 23.5572 139.351 23.4008L139.288 22.5316C139.286 22.3852 139.348 22.3041 139.474 22.2885C140.7 22.1918 141.849 22.5071 142.922 23.2346C143.766 23.8072 144.306 24.4855 144.543 25.2695C144.796 26.0504 144.708 26.7586 144.276 27.3942Z" fill="white"/>
<path d="M141.671 37.0823L140.915 36.4149C140.817 36.3275 140.815 36.2299 140.91 36.122L143.139 33.5994C143.226 33.5005 143.319 33.4947 143.418 33.5821L143.715 33.8443C144.197 33.9336 144.872 33.658 145.742 33.0175C146.629 32.3761 148.07 31.0627 150.064 29.0775C150.159 28.9696 150.257 28.9594 150.355 29.0468L154.659 32.8485C154.767 32.9439 154.773 33.0455 154.677 33.1534L149.529 38.9809L150.23 39.6006C150.338 39.696 150.349 39.7931 150.261 39.892L148.033 42.4145C147.937 42.5225 147.836 42.5287 147.728 42.4334L146.986 41.7779C146.878 41.6826 146.872 41.581 146.967 41.473L148.457 39.7869L143.452 35.3654L141.962 37.0515C141.867 37.1595 141.77 37.1697 141.671 37.0823ZM150.35 30.8196C148.99 32.196 147.876 33.2129 147.007 33.8702C146.155 34.5266 145.467 34.8794 144.943 34.9288L148.423 38.0036L152.832 33.0125L150.35 30.8196Z" fill="white"/>
<path d="M159.286 42.913L157.96 44.0761C157.851 44.1711 157.754 44.1689 157.667 44.0697L153.786 39.6445L153.217 40.1429C152.721 40.5781 152.48 41.0768 152.494 41.639C152.509 42.2011 152.745 42.7438 153.204 43.2671C153.853 44.0069 154.711 44.4755 155.778 44.673C155.911 44.7157 155.961 44.7997 155.927 44.9251L155.757 45.7685C155.74 45.895 155.66 45.9493 155.517 45.9314C154.187 45.7252 153.079 45.1169 152.192 44.1064C151.504 43.3215 151.136 42.4556 151.087 41.5085C151.048 40.5535 151.429 39.7239 152.232 39.0197L154.289 37.2157C155.164 36.4482 156.073 36.1378 157.016 36.2846C157.967 36.4404 158.794 36.9198 159.498 37.7228C160.195 38.5167 160.55 39.3861 160.565 40.3309C160.587 41.2848 160.161 42.1455 159.286 42.913ZM158.336 41.8304C158.887 41.3477 159.164 40.8174 159.168 40.2394C159.18 39.6704 158.956 39.1243 158.497 38.6011C158.03 38.0688 157.514 37.7713 156.948 37.7088C156.392 37.6383 155.834 37.8483 155.274 38.3389L154.706 38.8374L157.768 42.3288L158.336 41.8304Z" fill="white"/>
<path d="M160.91 53.8952C159.799 53.5094 158.91 52.8323 158.243 51.8639C157.575 50.8955 157.306 49.9444 157.435 49.0104C157.574 48.0696 158.068 47.3064 158.918 46.7209L161.171 45.1686C162.021 44.5831 162.91 44.3931 163.838 44.5985C164.767 44.804 165.561 45.386 166.222 46.3445C166.814 47.2042 167.122 48.1798 167.145 49.2712C167.144 49.4177 167.07 49.4904 166.924 49.4893L166.051 49.5226C165.914 49.5147 165.845 49.4459 165.843 49.3161C165.82 48.5009 165.588 47.7722 165.145 47.1299C164.716 46.5074 164.22 46.1355 163.655 46.0143C163.091 45.8931 162.542 46.0164 162.008 46.384L159.755 47.9364C159.212 48.3108 158.896 48.7833 158.808 49.3538C158.73 49.9176 158.903 50.5058 159.325 51.1184C159.794 51.8002 160.468 52.3125 161.345 52.6553C161.486 52.6897 161.53 52.7756 161.479 52.9128L161.168 53.7614C161.116 53.8987 161.031 53.9433 160.91 53.8952Z" fill="white"/>
<path d="M162.932 59.2864L161.28 56.1283C161.219 56.0113 161.247 55.9222 161.364 55.8611L169.243 51.7398C169.371 51.6731 169.465 51.6982 169.526 51.8151L170.018 52.7562C170.085 52.8838 170.055 52.9809 169.927 53.0477L167.359 54.3909L168.419 56.4165C168.93 57.3948 169.084 58.2964 168.879 59.1213C168.679 59.9569 168.149 60.6 167.288 61.0505C166.373 61.5288 165.548 61.6083 164.812 61.289C164.087 60.9641 163.46 60.2965 162.932 59.2864ZM166.243 54.9748L162.989 56.6767L163.94 58.495C164.657 59.8667 165.553 60.2717 166.627 59.71C167.175 59.437 167.495 59.0527 167.588 58.5572C167.687 58.0723 167.555 57.4843 167.194 56.7931L166.243 54.9748Z" fill="white"/>
<path d="M172.86 71.5552C172.453 71.3439 172.174 70.998 172.022 70.5175C171.87 70.037 171.898 69.5877 172.106 69.1696C172.328 68.7594 172.686 68.4765 173.178 68.3209C173.67 68.1653 174.119 68.1932 174.526 68.4044C174.936 68.6271 175.217 68.9787 175.369 69.4592C175.521 69.9398 175.491 70.3833 175.28 70.79C175.072 71.208 174.722 71.4948 174.23 71.6504C173.739 71.806 173.282 71.7742 172.86 71.5552Z" fill="white"/>
<path d="M177.656 85.6645L172.007 90.4515C171.954 90.5067 171.896 90.5262 171.833 90.51C171.783 90.4923 171.752 90.4418 171.742 90.3584L171.566 88.9836C171.552 88.8765 171.589 88.7871 171.677 88.7154L176.348 84.9425L170.875 82.4484C170.773 82.4011 170.714 82.3238 170.701 82.2167L170.525 80.8419C170.514 80.7586 170.53 80.696 170.573 80.6542C170.63 80.6228 170.691 80.6271 170.757 80.6671L177.43 83.8969L183.048 79.2953C183.101 79.2401 183.153 79.2213 183.204 79.239C183.268 79.2671 183.305 79.3229 183.316 79.4062L183.49 80.7631C183.502 80.8584 183.464 80.9418 183.376 81.0135L178.776 84.6321L184.137 86.9591C184.239 87.0065 184.297 87.0777 184.309 87.173L184.483 88.5299C184.492 88.6013 184.468 88.6527 184.412 88.6842C184.368 88.726 184.314 88.7269 184.249 88.6869L177.656 85.6645Z" fill="white"/>
</svg>
